<svg xmlns="http://www.w3.org/2000/svg" xmlns:xlink="http://www.w3.org/1999/xlink" width="500" zoomAndPan="magnify" viewBox="0 0 375 374.999991" height="500" preserveAspectRatio="xMidYMid meet" version="1.0"><defs><g/><clipPath id="03d60e9f80"><path d="M 92 98 L 280 98 L 280 286 L 92 286 Z M 92 98 " clip-rule="nonzero"/></clipPath><clipPath id="c68d48ebf4"><path d="M 312.554688 237.667969 L 142.890625 317.484375 L 62.4375 146.460938 L 232.101562 66.648438 Z M 312.554688 237.667969 " clip-rule="nonzero"/></clipPath><clipPath id="2addcac33e"><path d="M 312.554688 237.667969 L 142.890625 317.484375 L 62.4375 146.460938 L 232.101562 66.648438 Z M 312.554688 237.667969 " clip-rule="nonzero"/></clipPath><clipPath id="1bcff97121"><path d="M 312.554688 237.667969 L 142.890625 317.484375 L 62.4375 146.460938 L 232.101562 66.648438 Z M 312.554688 237.667969 " clip-rule="nonzero"/></clipPath><clipPath id="3c3d921dc0"><path d="M 113.796875 246.445312 C 117.222656 250.195312 121.027344 253.570312 125.105469 256.570312 C 125.859375 257.375 126.625 258.167969 127.40625 258.9375 C 134.453125 265.910156 142.667969 271.609375 151.585938 275.917969 C 160.570312 280.253906 170.253906 283.125 180.140625 284.429688 C 189.984375 285.730469 200.117188 285.355469 209.816406 283.207031 C 219.558594 281.046875 228.804688 277.074219 237.058594 271.464844 C 245.238281 265.90625 252.351562 258.816406 258.15625 250.8125 C 264.03125 242.710938 268.589844 233.640625 271.640625 224.113281 C 271.96875 223.09375 272.277344 222.066406 272.570312 221.035156 C 276.183594 213.136719 278.480469 204.664062 279.308594 196.011719 C 280.199219 186.699219 279.433594 177.234375 277.242188 168.144531 C 275.035156 159 271.421875 150.199219 266.617188 142.109375 C 261.820312 134.050781 255.882812 126.675781 248.929688 120.375 C 241.976562 114.074219 234.078125 108.855469 225.464844 105.121094 C 216.785156 101.351562 207.425781 99.191406 197.988281 98.585938 C 188.484375 97.980469 178.882812 98.921875 169.652344 101.234375 C 169.492188 101.273438 169.332031 101.320312 169.175781 101.359375 C 163.398438 102.222656 157.707031 103.601562 152.171875 105.476562 C 142.882812 108.628906 134.066406 113.21875 126.207031 119.09375 C 118.421875 124.90625 111.582031 132.03125 106.253906 140.171875 C 101.03125 148.144531 97.265625 157.03125 94.980469 166.277344 C 92.683594 175.554688 91.859375 185.152344 92.480469 194.691406 C 93.097656 204.164062 95.183594 213.539062 98.738281 222.34375 C 102.292969 231.167969 107.371094 239.417969 113.796875 246.445312 Z M 111.757812 234.207031 C 107.585938 225.972656 104.601562 217.164062 102.855469 208.101562 C 101.113281 199.007812 100.621094 189.683594 101.484375 180.464844 C 102.347656 171.285156 104.570312 162.234375 108.207031 153.753906 C 111.882812 145.171875 117.054688 137.25 123.375 130.386719 C 129.679688 123.535156 137.058594 117.679688 145.117188 113.023438 C 152.863281 108.546875 161.238281 105.140625 169.917969 102.957031 C 173.988281 102.371094 178.101562 102.054688 182.203125 102.015625 C 191.839844 101.925781 201.492188 103.324219 210.644531 106.371094 C 219.882812 109.449219 228.527344 114.152344 236.246094 120.082031 C 243.941406 125.992188 250.695312 133.105469 256.308594 141.015625 C 261.953125 148.972656 266.4375 157.769531 269.535156 167.019531 C 272.628906 176.261719 274.308594 186.027344 274.3125 195.777344 C 274.316406 204.480469 273.015625 213.167969 270.542969 221.507812 C 270.351562 221.910156 270.160156 222.308594 269.964844 222.707031 C 265.992188 230.730469 260.648438 238.101562 254.390625 244.496094 C 248.105469 250.921875 240.875 256.425781 232.992188 260.742188 C 225.179688 265.027344 216.742188 268.175781 207.992188 269.882812 C 203.726562 270.71875 199.402344 271.203125 195.066406 271.324219 C 203.417969 269.484375 211.5 266.320312 218.773438 261.816406 C 219.933594 261.097656 219.035156 259.144531 217.859375 259.871094 C 209.84375 264.839844 200.960938 268.214844 191.6875 269.925781 C 189.375 270.351562 187.042969 270.675781 184.707031 270.902344 C 183.886719 270.808594 183.0625 270.710938 182.242188 270.59375 C 181.816406 270.53125 181.570312 270.816406 181.523438 271.144531 C 175.515625 271.492188 169.472656 271.195312 163.519531 270.289062 C 154.214844 268.875 145.097656 265.960938 136.75 261.601562 C 133.105469 259.703125 129.597656 257.527344 126.285156 255.101562 C 120.492188 248.871094 115.613281 241.804688 111.757812 234.207031 Z M 256.046875 250.625 C 250.242188 258.433594 243.140625 265.289062 235.015625 270.65625 C 226.867188 276.039062 217.6875 279.761719 208.109375 281.660156 C 198.539062 283.5625 188.683594 283.691406 179.03125 282.304688 C 169.363281 280.921875 159.929688 277.953125 151.183594 273.613281 C 144.859375 270.472656 138.898438 266.566406 133.511719 261.996094 C 134.589844 262.601562 135.679688 263.1875 136.785156 263.75 C 145.371094 268.105469 154.695312 270.996094 164.222656 272.375 C 172.019531 273.5 179.996094 273.597656 187.816406 272.59375 C 194.996094 273.085938 202.238281 272.566406 209.289062 271.105469 C 218.179688 269.261719 226.769531 265.984375 234.679688 261.535156 C 242.667969 257.042969 250.003906 251.386719 256.339844 244.765625 C 260.4375 240.484375 264.105469 235.8125 267.261719 230.816406 C 264.347656 237.84375 260.589844 244.511719 256.046875 250.625 Z M 198.9375 100.371094 C 208.234375 101.074219 217.386719 103.320312 225.898438 107.140625 C 234.25 110.890625 241.949219 116.125 248.636719 122.371094 C 255.382812 128.664062 261.171875 135.988281 265.78125 143.980469 C 270.378906 151.96875 273.828125 160.621094 275.871094 169.609375 C 277.902344 178.519531 278.542969 187.738281 277.5625 196.832031 C 277.101562 201.140625 276.257812 205.390625 275.070312 209.546875 C 275.824219 204.617188 276.175781 199.628906 276.101562 194.648438 C 275.945312 184.6875 274.121094 174.820312 270.867188 165.410156 C 267.617188 155.992188 262.917969 147.082031 257.054688 139.03125 C 251.230469 131.039062 244.21875 123.894531 236.289062 117.984375 C 228.351562 112.066406 219.445312 107.382812 210.003906 104.386719 C 202.289062 101.9375 194.226562 100.609375 186.140625 100.351562 C 190.402344 100.050781 194.683594 100.046875 198.9375 100.371094 Z M 100.09375 220.617188 C 96.734375 211.972656 94.804688 202.769531 94.261719 193.511719 C 93.714844 184.191406 94.601562 174.722656 96.953125 165.6875 C 99.308594 156.648438 103.085938 147.988281 108.304688 140.238281 C 113.664062 132.273438 120.484375 125.363281 128.230469 119.714844 C 135.863281 114.15625 144.390625 109.859375 153.34375 106.871094 C 149.863281 108.425781 146.472656 110.175781 143.195312 112.128906 C 135.027344 116.992188 127.578125 123.023438 121.230469 130.113281 C 114.871094 137.21875 109.722656 145.34375 106.070312 154.152344 C 102.480469 162.808594 100.335938 172.0625 99.558594 181.398438 C 98.78125 190.816406 99.386719 200.359375 101.273438 209.617188 C 103.167969 218.890625 106.347656 227.917969 110.757812 236.296875 C 112.976562 240.507812 115.5 244.5625 118.324219 248.398438 C 116.992188 247.109375 115.699219 245.769531 114.464844 244.378906 C 108.285156 237.414062 103.46875 229.292969 100.09375 220.617188 Z M 100.09375 220.617188 " clip-rule="nonzero"/></clipPath><linearGradient x1="-137.922243" gradientTransform="matrix(-0.337775, 0.158897, -0.158996, -0.337987, 314.636867, 237.886028)" y1="30.487135" x2="654.961471" gradientUnits="userSpaceOnUse" y2="488.260347" id="ae6fed4d66"><stop stop-opacity="1" stop-color="rgb(70.999146%, 38.798523%, 46.299744%)" offset="0"/><stop stop-opacity="1" stop-color="rgb(70.999146%, 38.798523%, 46.299744%)" offset="0.125"/><stop stop-opacity="1" stop-color="rgb(70.999146%, 38.798523%, 46.299744%)" offset="0.1875"/><stop stop-opacity="1" stop-color="rgb(70.999146%, 38.798523%, 46.299744%)" offset="0.21875"/><stop stop-opacity="1" stop-color="rgb(70.999146%, 38.798523%, 46.299744%)" offset="0.226562"/><stop stop-opacity="1" stop-color="rgb(71.437073%, 39.483643%, 46.942139%)" offset="0.230469"/><stop stop-opacity="1" stop-color="rgb(71.876526%, 40.170288%, 47.58606%)" offset="0.234375"/><stop stop-opacity="1" stop-color="rgb(72.720337%, 41.487122%, 48.822021%)" offset="0.238281"/><stop stop-opacity="1" stop-color="rgb(73.564148%, 42.805481%, 50.059509%)" offset="0.242187"/><stop stop-opacity="1" stop-color="rgb(74.407959%, 44.122314%, 51.296997%)" offset="0.246094"/><stop stop-opacity="1" stop-color="rgb(75.25177%, 45.440674%, 52.534485%)" offset="0.25"/><stop stop-opacity="1" stop-color="rgb(76.095581%, 46.759033%, 53.771973%)" offset="0.253906"/><stop stop-opacity="1" stop-color="rgb(76.939392%, 48.077393%, 55.00946%)" offset="0.257812"/><stop stop-opacity="1" stop-color="rgb(77.783203%, 49.394226%, 56.245422%)" offset="0.261719"/><stop stop-opacity="1" stop-color="rgb(78.627014%, 50.712585%, 57.48291%)" offset="0.265625"/><stop stop-opacity="1" stop-color="rgb(79.470825%, 52.029419%, 58.720398%)" offset="0.269531"/><stop stop-opacity="1" stop-color="rgb(80.314636%, 53.347778%, 59.957886%)" offset="0.273438"/><stop stop-opacity="1" stop-color="rgb(81.158447%, 54.666138%, 61.195374%)" offset="0.277344"/><stop stop-opacity="1" stop-color="rgb(82.002258%, 55.984497%, 62.432861%)" offset="0.28125"/><stop stop-opacity="1" stop-color="rgb(82.846069%, 57.301331%, 63.668823%)" offset="0.285156"/><stop stop-opacity="1" stop-color="rgb(83.68988%, 58.61969%, 64.906311%)" offset="0.289062"/><stop stop-opacity="1" stop-color="rgb(84.533691%, 59.938049%, 66.143799%)" offset="0.292969"/><stop stop-opacity="1" stop-color="rgb(85.379028%, 61.256409%, 67.381287%)" offset="0.296875"/><stop stop-opacity="1" stop-color="rgb(86.222839%, 62.573242%, 68.617249%)" offset="0.300781"/><stop stop-opacity="1" stop-color="rgb(87.06665%, 63.891602%, 69.854736%)" offset="0.304688"/><stop stop-opacity="1" stop-color="rgb(87.910461%, 65.208435%, 71.092224%)" offset="0.308594"/><stop stop-opacity="1" stop-color="rgb(88.754272%, 66.526794%, 72.329712%)" offset="0.3125"/><stop stop-opacity="1" stop-color="rgb(89.598083%, 67.845154%, 73.5672%)" offset="0.316406"/><stop stop-opacity="1" stop-color="rgb(90.441895%, 69.163513%, 74.804688%)" offset="0.320312"/><stop stop-opacity="1" stop-color="rgb(91.285706%, 70.480347%, 76.040649%)" offset="0.324219"/><stop stop-opacity="1" stop-color="rgb(92.129517%, 71.798706%, 77.278137%)" offset="0.328125"/><stop stop-opacity="1" stop-color="rgb(92.973328%, 73.117065%, 78.515625%)" offset="0.332031"/><stop stop-opacity="1" stop-color="rgb(93.817139%, 74.435425%, 79.753113%)" offset="0.335938"/><stop stop-opacity="1" stop-color="rgb(94.66095%, 75.752258%, 80.990601%)" offset="0.339844"/><stop stop-opacity="1" stop-color="rgb(95.504761%, 77.070618%, 82.228088%)" offset="0.34375"/><stop stop-opacity="1" stop-color="rgb(95.445251%, 76.997375%, 82.112122%)" offset="0.347656"/><stop stop-opacity="1" stop-color="rgb(95.385742%, 76.925659%, 81.997681%)" offset="0.351562"/><stop stop-opacity="1" stop-color="rgb(94.833374%, 76.095581%, 81.14624%)" offset="0.355469"/><stop stop-opacity="1" stop-color="rgb(94.282532%, 75.267029%, 80.296326%)" offset="0.359375"/><stop stop-opacity="1" stop-color="rgb(93.731689%, 74.436951%, 79.444885%)" offset="0.363281"/><stop stop-opacity="1" stop-color="rgb(93.180847%, 73.608398%, 78.594971%)" offset="0.367188"/><stop stop-opacity="1" stop-color="rgb(92.630005%, 72.77832%, 77.745056%)" offset="0.371094"/><stop stop-opacity="1" stop-color="rgb(92.079163%, 71.949768%, 76.895142%)" offset="0.375"/><stop stop-opacity="1" stop-color="rgb(91.526794%, 71.11969%, 76.043701%)" offset="0.378906"/><stop stop-opacity="1" stop-color="rgb(90.975952%, 70.291138%, 75.193787%)" offset="0.382813"/><stop stop-opacity="1" stop-color="rgb(90.42511%, 69.46106%, 74.342346%)" offset="0.386719"/><stop stop-opacity="1" stop-color="rgb(89.874268%, 68.632507%, 73.492432%)" offset="0.390625"/><stop stop-opacity="1" stop-color="rgb(89.323425%, 67.802429%, 72.640991%)" offset="0.394531"/><stop stop-opacity="1" stop-color="rgb(88.772583%, 66.973877%, 71.791077%)" offset="0.398437"/><stop stop-opacity="1" stop-color="rgb(88.220215%, 66.143799%, 70.939636%)" offset="0.402344"/><stop stop-opacity="1" stop-color="rgb(87.669373%, 65.315247%, 70.089722%)" offset="0.40625"/><stop stop-opacity="1" stop-color="rgb(87.11853%, 64.485168%, 69.239807%)" offset="0.410156"/><stop stop-opacity="1" stop-color="rgb(86.567688%, 63.656616%, 68.389893%)" offset="0.414062"/><stop stop-opacity="1" stop-color="rgb(86.016846%, 62.826538%, 67.538452%)" offset="0.417969"/><stop stop-opacity="1" stop-color="rgb(85.466003%, 61.997986%, 66.688538%)" offset="0.421875"/><stop stop-opacity="1" stop-color="rgb(84.913635%, 61.167908%, 65.837097%)" offset="0.425781"/><stop stop-opacity="1" stop-color="rgb(84.362793%, 60.339355%, 64.987183%)" offset="0.429688"/><stop stop-opacity="1" stop-color="rgb(83.811951%, 59.509277%, 64.135742%)" offset="0.433594"/><stop stop-opacity="1" stop-color="rgb(83.261108%, 58.680725%, 63.285828%)" offset="0.4375"/><stop stop-opacity="1" stop-color="rgb(82.710266%, 57.850647%, 62.434387%)" offset="0.441406"/><stop stop-opacity="1" stop-color="rgb(82.159424%, 57.022095%, 61.584473%)" offset="0.445312"/><stop stop-opacity="1" stop-color="rgb(81.607056%, 56.192017%, 60.734558%)" offset="0.449219"/><stop stop-opacity="1" stop-color="rgb(81.056213%, 55.363464%, 59.884644%)" offset="0.453125"/><stop stop-opacity="1" stop-color="rgb(80.505371%, 54.533386%, 59.033203%)" offset="0.457031"/><stop stop-opacity="1" stop-color="rgb(79.954529%, 53.704834%, 58.183289%)" offset="0.460937"/><stop stop-opacity="1" stop-color="rgb(79.402161%, 52.874756%, 57.331848%)" offset="0.464844"/><stop stop-opacity="1" stop-color="rgb(78.851318%, 52.046204%, 56.481934%)" offset="0.46875"/><stop stop-opacity="1" stop-color="rgb(78.300476%, 51.216125%, 55.630493%)" offset="0.472656"/><stop stop-opacity="1" stop-color="rgb(77.749634%, 50.387573%, 54.780579%)" offset="0.476562"/><stop stop-opacity="1" stop-color="rgb(77.198792%, 49.557495%, 53.930664%)" offset="0.480469"/><stop stop-opacity="1" stop-color="rgb(76.647949%, 48.728943%, 53.08075%)" offset="0.484375"/><stop stop-opacity="1" stop-color="rgb(76.095581%, 47.898865%, 52.229309%)" offset="0.488281"/><stop stop-opacity="1" stop-color="rgb(75.544739%, 47.070312%, 51.379395%)" offset="0.492188"/><stop stop-opacity="1" stop-color="rgb(75.85144%, 47.666931%, 51.931763%)" offset="0.496094"/><stop stop-opacity="1" stop-color="rgb(76.159668%, 48.26355%, 52.485657%)" offset="0.5"/><stop stop-opacity="1" stop-color="rgb(76.713562%, 49.27063%, 53.442383%)" offset="0.503906"/><stop stop-opacity="1" stop-color="rgb(77.267456%, 50.279236%, 54.400635%)" offset="0.507812"/><stop stop-opacity="1" stop-color="rgb(77.82135%, 51.286316%, 55.357361%)" offset="0.511719"/><stop stop-opacity="1" stop-color="rgb(78.37677%, 52.293396%, 56.314087%)" offset="0.515625"/><stop stop-opacity="1" stop-color="rgb(78.930664%, 53.300476%, 57.270813%)" offset="0.519531"/><stop stop-opacity="1" stop-color="rgb(79.484558%, 54.309082%, 58.227539%)" offset="0.523437"/><stop stop-opacity="1" stop-color="rgb(80.038452%, 55.316162%, 59.184265%)" offset="0.527344"/><stop stop-opacity="1" stop-color="rgb(80.592346%, 56.323242%, 60.142517%)" offset="0.53125"/><stop stop-opacity="1" stop-color="rgb(81.14624%, 57.330322%, 61.099243%)" offset="0.535156"/><stop stop-opacity="1" stop-color="rgb(81.700134%, 58.338928%, 62.055969%)" offset="0.539062"/><stop stop-opacity="1" stop-color="rgb(82.254028%, 59.346008%, 63.012695%)" offset="0.542969"/><stop stop-opacity="1" stop-color="rgb(82.809448%, 60.353088%, 63.970947%)" offset="0.546875"/><stop stop-opacity="1" stop-color="rgb(83.363342%, 61.360168%, 64.927673%)" offset="0.550781"/><stop stop-opacity="1" stop-color="rgb(83.917236%, 62.367249%, 65.884399%)" offset="0.554688"/><stop stop-opacity="1" stop-color="rgb(84.47113%, 63.374329%, 66.841125%)" offset="0.558594"/><stop stop-opacity="1" stop-color="rgb(85.025024%, 64.382935%, 67.797852%)" offset="0.5625"/><stop stop-opacity="1" stop-color="rgb(85.578918%, 65.390015%, 68.754578%)" offset="0.566406"/><stop stop-opacity="1" stop-color="rgb(86.132812%, 66.397095%, 69.71283%)" offset="0.570312"/><stop stop-opacity="1" stop-color="rgb(86.686707%, 67.404175%, 70.669556%)" offset="0.574219"/><stop stop-opacity="1" stop-color="rgb(87.240601%, 68.412781%, 71.626282%)" offset="0.578125"/><stop stop-opacity="1" stop-color="rgb(87.794495%, 69.419861%, 72.583008%)" offset="0.582031"/><stop stop-opacity="1" stop-color="rgb(88.349915%, 70.426941%, 73.54126%)" offset="0.585938"/><stop stop-opacity="1" stop-color="rgb(88.903809%, 71.434021%, 74.497986%)" offset="0.589844"/><stop stop-opacity="1" stop-color="rgb(89.457703%, 72.441101%, 75.454712%)" offset="0.59375"/><stop stop-opacity="1" stop-color="rgb(90.011597%, 73.448181%, 76.411438%)" offset="0.597656"/><stop stop-opacity="1" stop-color="rgb(90.565491%, 74.456787%, 77.368164%)" offset="0.601563"/><stop stop-opacity="1" stop-color="rgb(91.119385%, 75.463867%, 78.32489%)" offset="0.605469"/><stop stop-opacity="1" stop-color="rgb(91.673279%, 76.470947%, 79.283142%)" offset="0.609375"/><stop stop-opacity="1" stop-color="rgb(92.227173%, 77.478027%, 80.239868%)" offset="0.613281"/><stop stop-opacity="1" stop-color="rgb(92.782593%, 78.486633%, 81.196594%)" offset="0.617188"/><stop stop-opacity="1" stop-color="rgb(93.336487%, 79.493713%, 82.15332%)" offset="0.621094"/><stop stop-opacity="1" stop-color="rgb(93.890381%, 80.500793%, 83.111572%)" offset="0.625"/><stop stop-opacity="1" stop-color="rgb(94.444275%, 81.507874%, 84.068298%)" offset="0.628906"/><stop stop-opacity="1" stop-color="rgb(94.998169%, 82.516479%, 85.025024%)" offset="0.632812"/><stop stop-opacity="1" stop-color="rgb(95.552063%, 83.52356%, 85.98175%)" offset="0.636719"/><stop stop-opacity="1" stop-color="rgb(96.105957%, 84.53064%, 86.938477%)" offset="0.640625"/><stop stop-opacity="1" stop-color="rgb(96.659851%, 85.53772%, 87.895203%)" offset="0.644531"/><stop stop-opacity="1" stop-color="rgb(97.215271%, 86.5448%, 88.853455%)" offset="0.648438"/><stop stop-opacity="1" stop-color="rgb(96.569824%, 85.250854%, 87.600708%)" offset="0.652344"/><stop stop-opacity="1" stop-color="rgb(95.925903%, 83.956909%, 86.349487%)" offset="0.65625"/><stop stop-opacity="1" stop-color="rgb(95.181274%, 82.472229%, 84.913635%)" offset="0.660156"/><stop stop-opacity="1" stop-color="rgb(94.438171%, 80.989075%, 83.479309%)" offset="0.664063"/><stop stop-opacity="1" stop-color="rgb(93.693542%, 79.504395%, 82.043457%)" offset="0.667969"/><stop stop-opacity="1" stop-color="rgb(92.950439%, 78.019714%, 80.609131%)" offset="0.671875"/><stop stop-opacity="1" stop-color="rgb(92.205811%, 76.535034%, 79.174805%)" offset="0.675781"/><stop stop-opacity="1" stop-color="rgb(91.462708%, 75.050354%, 77.740479%)" offset="0.679688"/><stop stop-opacity="1" stop-color="rgb(90.718079%, 73.565674%, 76.304626%)" offset="0.683594"/><stop stop-opacity="1" stop-color="rgb(89.974976%, 72.08252%, 74.8703%)" offset="0.6875"/><stop stop-opacity="1" stop-color="rgb(89.231873%, 70.597839%, 73.435974%)" offset="0.691406"/><stop stop-opacity="1" stop-color="rgb(88.48877%, 69.113159%, 72.001648%)" offset="0.695312"/><stop stop-opacity="1" stop-color="rgb(87.744141%, 67.628479%, 70.565796%)" offset="0.699219"/><stop stop-opacity="1" stop-color="rgb(87.001038%, 66.145325%, 69.13147%)" offset="0.703125"/><stop stop-opacity="1" stop-color="rgb(86.256409%, 64.660645%, 67.695618%)" offset="0.707031"/><stop stop-opacity="1" stop-color="rgb(85.513306%, 63.175964%, 66.261292%)" offset="0.710938"/><stop stop-opacity="1" stop-color="rgb(84.768677%, 61.691284%, 64.826965%)" offset="0.714844"/><stop stop-opacity="1" stop-color="rgb(84.025574%, 60.20813%, 63.392639%)" offset="0.71875"/><stop stop-opacity="1" stop-color="rgb(83.280945%, 58.72345%, 61.956787%)" offset="0.722656"/><stop stop-opacity="1" stop-color="rgb(82.537842%, 57.23877%, 60.522461%)" offset="0.726562"/><stop stop-opacity="1" stop-color="rgb(81.793213%, 55.754089%, 59.088135%)" offset="0.730469"/><stop stop-opacity="1" stop-color="rgb(81.05011%, 54.270935%, 57.653809%)" offset="0.734375"/><stop stop-opacity="1" stop-color="rgb(80.307007%, 52.786255%, 56.217957%)" offset="0.738281"/><stop stop-opacity="1" stop-color="rgb(79.563904%, 51.301575%, 54.78363%)" offset="0.742188"/><stop stop-opacity="1" stop-color="rgb(78.819275%, 49.816895%, 53.349304%)" offset="0.746094"/><stop stop-opacity="1" stop-color="rgb(78.076172%, 48.332214%, 51.914978%)" offset="0.75"/><stop stop-opacity="1" stop-color="rgb(77.331543%, 46.847534%, 50.479126%)" offset="0.753906"/><stop stop-opacity="1" stop-color="rgb(76.58844%, 45.36438%, 49.0448%)" offset="0.757812"/><stop stop-opacity="1" stop-color="rgb(75.843811%, 43.8797%, 47.608948%)" offset="0.761719"/><stop stop-opacity="1" stop-color="rgb(75.100708%, 42.39502%, 46.174622%)" offset="0.765625"/><stop stop-opacity="1" stop-color="rgb(74.356079%, 40.910339%, 44.740295%)" offset="0.769531"/><stop stop-opacity="1" stop-color="rgb(73.612976%, 39.427185%, 43.305969%)" offset="0.773438"/><stop stop-opacity="1" stop-color="rgb(73.455811%, 39.112854%, 43.002319%)" offset="0.777344"/><stop stop-opacity="1" stop-color="rgb(73.298645%, 38.798523%, 42.698669%)" offset="0.78125"/><stop stop-opacity="1" stop-color="rgb(73.298645%, 38.798523%, 42.698669%)" offset="0.8125"/><stop stop-opacity="1" stop-color="rgb(73.298645%, 38.798523%, 42.698669%)" offset="0.875"/><stop stop-opacity="1" stop-color="rgb(73.298645%, 38.798523%, 42.698669%)" offset="1"/></linearGradient><clipPath id="fc1fc187cf"><path d="M 274.5 162 L 285 162 L 285 171.289062 L 274.5 171.289062 Z M 274.5 162 " clip-rule="nonzero"/></clipPath></defs><g clip-path="url(#03d60e9f80)"><g clip-path="url(#c68d48ebf4)"><g clip-path="url(#2addcac33e)"><g clip-path="url(#1bcff97121)"><g clip-path="url(#3c3d921dc0)"><path fill="url(#ae6fed4d66)" d="M 352.515625 251.710938 L 246.074219 25.4375 L 19.542969 132 L 125.984375 358.277344 Z M 352.515625 251.710938 " fill-rule="nonzero"/></g></g></g></g></g><g fill="#000000" fill-opacity="1"><g transform="translate(231.944633, 202.46436)"><g><path d="M -0.707031 -21.128906 C -1.265625 -28.613281 -1.402344 -36.109375 -0.621094 -43.550781 C -0.261719 -46.734375 0.101562 -49.914062 0.523438 -53.058594 C 0.621094 -53.832031 0.351562 -54.019531 -0.292969 -54.046875 C -1.273438 -54.136719 -1.445312 -53.449219 -1.621094 -52.761719 C -2.199219 -50.15625 -2.550781 -47.507812 -2.90625 -44.859375 C -4 -36.105469 -3.773438 -27.363281 -3.011719 -18.613281 C -2.519531 -12.648438 -1.507812 -6.730469 -0.597656 -0.785156 C -0.492188 -0.230469 -0.363281 0.210938 0.257812 0.351562 C 1.394531 0.609375 1.914062 0.195312 1.800781 -0.941406 C 1.257812 -6.144531 1.253906 -11.34375 1.554688 -16.578125 C 1.921875 -22.683594 2.953125 -28.710938 4.253906 -34.707031 C 6.414062 -44.5625 9.371094 -54.222656 13.996094 -63.246094 C 16.707031 -68.585938 19.875 -73.636719 24.296875 -77.824219 C 25.996094 -79.480469 27.816406 -80.90625 30.050781 -81.8125 C 32.394531 -82.699219 33.75 -82.238281 35.046875 -80.117188 C 36.058594 -78.445312 36.496094 -76.554688 36.785156 -74.621094 C 37.613281 -68.96875 37.179688 -63.269531 36.472656 -57.601562 C 35.414062 -48.910156 33.632812 -40.332031 32.1875 -31.691406 C 31.121094 -25.230469 30.171875 -18.75 30.363281 -12.167969 C 30.394531 -10.585938 30.621094 -9.058594 30.859375 -7.484375 C 30.902344 -6.964844 31.261719 -6.644531 31.808594 -6.585938 C 32.355469 -6.53125 32.761719 -6.597656 33.25 -7.109375 C 33.859375 -7.761719 34.039062 -8.609375 34.394531 -9.402344 C 35.890625 -12.695312 37.828125 -15.746094 40.140625 -18.585938 C 41.792969 -20.601562 43.492188 -22.628906 45.628906 -24.25 C 46.777344 -25.054688 47.050781 -25.027344 47.6875 -23.726562 C 48.3125 -22.472656 48.742188 -21.164062 49.222656 -19.867188 C 50.667969 -15.933594 54.253906 -14.359375 58.132812 -16.003906 C 60.21875 -16.871094 62.15625 -18.0625 63.992188 -19.441406 C 68.273438 -22.632812 72.019531 -26.414062 75.851562 -30.0625 C 76.222656 -30.433594 76.53125 -30.84375 76.902344 -31.214844 C 77.222656 -31.570312 77.019531 -31.726562 76.648438 -31.726562 C 76.3125 -31.789062 75.984375 -31.640625 75.71875 -31.457031 C 75.117188 -30.964844 74.449219 -30.511719 73.910156 -29.984375 C 71.398438 -27.457031 68.875 -24.980469 66.144531 -22.660156 C 63.511719 -20.363281 60.652344 -18.320312 57.378906 -16.957031 C 55.621094 -16.238281 54.523438 -16.5625 53.390625 -18.09375 C 53.179688 -18.457031 52.90625 -18.855469 52.730469 -19.285156 C 52.085938 -20.796875 51.535156 -22.335938 50.890625 -23.851562 C 50.082031 -25.742188 48.785156 -26.375 46.773438 -26.171875 C 45.085938 -25.949219 43.789062 -25.101562 42.628906 -23.972656 C 39.429688 -20.878906 36.550781 -17.609375 34.128906 -13.835938 C 33.992188 -13.582031 33.914062 -13.296875 33.488281 -13.121094 C 33.546875 -16.054688 33.695312 -18.859375 34.042969 -21.71875 C 34.878906 -29.707031 36.390625 -37.570312 37.835938 -45.46875 C 39.050781 -52.132812 40.15625 -58.816406 40.378906 -65.621094 C 40.535156 -69.699219 40.269531 -73.761719 39.144531 -77.683594 C 37.839844 -82.40625 34.019531 -84.4375 29.339844 -82.988281 C 28.507812 -82.75 27.652344 -82.398438 26.925781 -81.976562 C 24.558594 -80.609375 22.53125 -78.804688 20.71875 -76.796875 C 16.386719 -72.105469 13.222656 -66.683594 10.621094 -60.949219 C 5.160156 -48.925781 2.011719 -36.238281 0.171875 -23.242188 C -0.0234375 -21.699219 -0.21875 -20.15625 -0.417969 -18.453125 C -0.523438 -18.636719 -0.550781 -18.734375 -0.566406 -18.785156 C -0.628906 -19.5625 -0.695312 -20.339844 -0.707031 -21.128906 Z M -0.707031 -21.128906 "/></g></g></g><g fill="#000000" fill-opacity="1"><g transform="translate(62.285194, 199.576597)"><g><path d="M 20.070312 14.695312 C 25.949219 12.917969 31.550781 10.480469 37.09375 8.09375 C 37.757812 7.816406 38.203125 7.761719 38.8125 8.09375 C 45.578125 11.753906 52.730469 13.527344 60.4375 12.476562 C 64.875 11.867188 69.085938 10.644531 72.691406 7.761719 C 74.246094 6.542969 75.410156 5.101562 76.074219 3.214844 C 76.792969 1.054688 76.183594 -0.777344 74.355469 -2.105469 C 72.304688 -3.605469 69.917969 -3.9375 67.480469 -3.824219 C 63.210938 -3.660156 59.164062 -2.71875 55.113281 -1.441406 C 49.238281 0.332031 43.472656 2.605469 37.925781 5.210938 C 37.484375 5.433594 37.148438 5.601562 36.652344 5.265625 C 34.042969 3.546875 31.605469 1.609375 29.664062 -0.941406 C 26.335938 -5.265625 24.839844 -10.257812 24.339844 -15.636719 C 23.84375 -20.792969 24.730469 -25.617188 27.722656 -29.832031 C 32.4375 -36.59375 38.648438 -40.367188 47.1875 -39.089844 C 50.234375 -38.648438 52.898438 -37.261719 54.394531 -34.433594 C 55.613281 -32.046875 57.222656 -29.941406 58.609375 -27.667969 C 58.773438 -27.335938 59.050781 -27.058594 59.382812 -26.890625 C 59.882812 -26.503906 60.492188 -26.28125 60.992188 -26.671875 C 61.4375 -27.058594 60.9375 -27.558594 60.769531 -27.945312 C 59.328125 -31.050781 57.886719 -34.15625 56.667969 -37.371094 C 55.113281 -41.53125 54.007812 -45.800781 54.558594 -50.289062 C 55.113281 -54.558594 56.613281 -58.496094 60.269531 -61.101562 C 64.816406 -64.375 68.144531 -63.765625 71.25 -59.996094 C 71.304688 -59.9375 71.304688 -59.9375 71.359375 -59.882812 C 74.519531 -55.945312 76.40625 -51.511719 77.070312 -46.574219 C 77.128906 -45.855469 77.292969 -45.191406 77.570312 -44.578125 C 77.792969 -44.082031 78.238281 -43.914062 78.789062 -43.914062 C 79.34375 -43.914062 79.34375 -44.359375 79.457031 -44.746094 C 79.566406 -45.078125 79.566406 -45.410156 79.621094 -45.746094 C 79.679688 -52.285156 74.6875 -61.269531 69.976562 -63.488281 C 66.371094 -65.152344 62.820312 -65.152344 59.328125 -63.265625 C 54.449219 -60.660156 52.34375 -56.167969 51.457031 -51.011719 C 50.789062 -47.019531 51.566406 -43.136719 52.675781 -39.3125 C 52.730469 -38.980469 52.953125 -38.757812 52.785156 -38.425781 C 52.730469 -38.425781 52.621094 -38.425781 52.621094 -38.480469 C 52.453125 -38.535156 52.285156 -38.648438 52.121094 -38.757812 C 48.238281 -41.140625 44.023438 -41.863281 39.589844 -41.03125 C 31.328125 -39.480469 26.003906 -34.210938 22.957031 -26.671875 C 19.242188 -17.578125 22.289062 -5.488281 29.664062 1.664062 C 31.382812 3.328125 33.324219 4.824219 35.542969 6.265625 C 29.5 8.925781 23.675781 11.644531 17.410156 13.363281 C 10.8125 15.191406 4.714844 15.359375 3.9375 8.484375 C 3.9375 7.097656 3.269531 6.765625 2.71875 6.765625 C 2.273438 6.710938 2.105469 7.097656 2.164062 7.539062 C 3.714844 16.191406 12.308594 17.023438 20.070312 14.695312 Z M 49.515625 2.9375 C 55.226562 0.722656 60.992188 -1.21875 67.148438 -1.773438 C 68.53125 -1.886719 69.917969 -1.941406 71.304688 -1.828125 C 73.246094 -1.609375 73.691406 -1 73.414062 0.886719 C 73.136719 2.773438 72.191406 4.324219 70.695312 5.542969 C 68.199219 7.652344 65.207031 8.925781 62.046875 9.703125 C 54.503906 11.53125 47.242188 10.757812 40.308594 7.261719 C 40.199219 7.207031 40.089844 7.097656 39.753906 6.929688 C 43.136719 5.542969 46.296875 4.160156 49.515625 2.9375 Z M 49.515625 2.9375 "/></g></g></g><g fill="#000000" fill-opacity="1"><g transform="translate(143.784105, 199.576597)"><g><path d="M 47.742188 -9.648438 C 47.628906 -9.59375 47.519531 -9.535156 47.40625 -9.425781 C 46.132812 -8.648438 44.855469 -7.875 43.582031 -7.097656 C 40.863281 -5.433594 38.203125 -3.714844 35.265625 -2.441406 C 32.992188 -1.441406 30.664062 -0.832031 28.167969 -0.886719 C 26.558594 -0.886719 26.335938 -1.21875 26.671875 -2.71875 C 26.726562 -2.9375 26.78125 -3.160156 26.835938 -3.382812 C 27.003906 -4.046875 27.226562 -4.714844 27.28125 -5.378906 C 27.335938 -6.488281 26.890625 -7.375 26.003906 -8.039062 C 25.117188 -8.648438 24.398438 -8.207031 23.621094 -7.816406 C 22.179688 -7.042969 20.847656 -6.042969 19.460938 -5.15625 C 19.242188 -5.046875 19.074219 -4.714844 18.628906 -4.933594 C 18.796875 -5.878906 19.460938 -6.542969 19.851562 -7.429688 C 20.960938 -9.8125 22.234375 -12.144531 23.785156 -14.359375 C 25.503906 -16.746094 27.113281 -19.128906 28.777344 -21.570312 C 29.609375 -22.84375 30.328125 -24.175781 30.71875 -25.726562 C 31.328125 -28.390625 28.886719 -30.996094 26.171875 -30.386719 C 23.785156 -29.832031 21.625 -28.832031 19.628906 -27.445312 C 15.691406 -24.617188 12.363281 -21.070312 9.148438 -17.464844 C 6.929688 -14.914062 5.046875 -12.144531 3.160156 -9.371094 C 2.882812 -8.984375 2.660156 -8.539062 2.105469 -8.261719 C 2.105469 -8.984375 2.382812 -9.535156 2.605469 -10.089844 C 3.050781 -11.035156 3.4375 -11.976562 3.9375 -12.863281 C 4.269531 -13.417969 3.9375 -14.195312 3.269531 -14.582031 C 2.71875 -14.914062 2.328125 -14.695312 1.941406 -14.195312 C 1.496094 -13.585938 1.054688 -12.976562 0.722656 -12.253906 C -0.5 -9.535156 -0.832031 -6.652344 -1.164062 -3.769531 C -1.273438 -2.9375 -0.886719 -2.328125 -0.332031 -1.828125 C 0.277344 -1.332031 0.609375 -1.386719 1.054688 -2.050781 C 1.828125 -3.214844 2.550781 -4.4375 3.269531 -5.65625 C 7.152344 -11.976562 11.589844 -17.855469 17.410156 -22.511719 C 19.960938 -24.507812 22.621094 -26.335938 25.671875 -27.445312 C 26.503906 -27.722656 27.28125 -28.054688 28.332031 -27.890625 C 28.277344 -27.113281 28 -26.558594 27.722656 -25.949219 C 27.335938 -25.171875 26.835938 -24.398438 26.394531 -23.621094 C 24.617188 -20.460938 22.289062 -17.6875 20.292969 -14.695312 C 18.1875 -11.53125 16.46875 -8.207031 15.25 -4.601562 C 15.027344 -3.992188 14.804688 -3.328125 14.859375 -2.605469 C 14.914062 -1.71875 15.46875 -1.21875 16.191406 -0.832031 C 16.855469 -0.5 17.1875 -1.109375 17.632812 -1.441406 C 19.296875 -2.828125 21.070312 -4.160156 23.011719 -5.15625 C 23.453125 -5.433594 23.953125 -5.765625 24.5625 -5.65625 C 24.507812 -4.769531 24.453125 -4.046875 24.398438 -3.269531 C 24.175781 -0.941406 26.558594 1.386719 29.109375 0.832031 C 32.105469 0.222656 34.875 -0.886719 37.484375 -2.382812 C 39.867188 -3.714844 42.195312 -5.210938 44.523438 -6.597656 C 45.746094 -7.375 46.910156 -8.152344 48.128906 -8.871094 C 48.351562 -9.039062 48.515625 -9.203125 48.292969 -9.535156 C 48.183594 -9.703125 47.960938 -9.757812 47.742188 -9.648438 Z M 47.742188 -9.648438 "/></g></g></g><g fill="#000000" fill-opacity="1"><g transform="translate(191.574618, 199.576597)"><g><path d="M 3.882812 -1.773438 C 3.992188 -0.609375 4.160156 0.554688 4.714844 1.609375 C 6.597656 5.15625 10.367188 5.933594 13.527344 4.601562 C 19.90625 1.886719 31.882812 -8.59375 38.757812 -9.425781 C 38.703125 -9.648438 38.703125 -9.757812 38.648438 -9.8125 C 36.761719 -11.921875 19.738281 -0.222656 14.140625 2.496094 C 12.699219 3.214844 11.253906 3.824219 9.59375 3.824219 C 8.761719 3.769531 8.207031 3.4375 7.875 2.660156 C 7.539062 1.886719 7.375 1.054688 7.375 0.167969 C 7.320312 -1.828125 7.707031 -3.714844 8.484375 -5.601562 C 9.09375 -7.152344 10.035156 -8.539062 10.867188 -9.980469 C 11.476562 -11.144531 11.367188 -11.53125 10.203125 -12.085938 C 9.871094 -12.253906 9.535156 -12.476562 9.203125 -12.363281 C 8.59375 -12.144531 8.261719 -12.476562 7.816406 -12.753906 C 6.15625 -13.695312 4.492188 -13.917969 2.828125 -12.863281 C -1.164062 -10.367188 -2.996094 -6.597656 -2.882812 -1.996094 C -2.882812 -0.445312 -1.109375 0.445312 0.332031 -0.222656 C 0.886719 -0.5 1.386719 -0.886719 1.773438 -1.332031 C 2.382812 -1.886719 2.996094 -2.496094 3.660156 -3.160156 C 3.882812 -2.605469 3.824219 -2.164062 3.882812 -1.773438 Z M 0.777344 -2.441406 C 0.386719 -2.105469 -0.0546875 -1.828125 -0.664062 -1.386719 C -0.664062 -2.605469 -0.445312 -3.492188 -0.109375 -4.269531 C 0.886719 -6.820312 2.328125 -8.984375 4.4375 -10.757812 C 4.824219 -11.089844 5.324219 -11.3125 5.765625 -11.589844 C 6.042969 -11.753906 6.433594 -11.808594 6.652344 -11.421875 C 6.875 -11.089844 7.097656 -10.8125 6.820312 -10.367188 C 5.046875 -7.539062 3.328125 -4.65625 0.777344 -2.441406 Z M 0.777344 -2.441406 "/></g></g></g><g clip-path="url(#fc1fc187cf)"><path fill="#156d61" d="M 275.503906 164.820312 C 275.503906 164.820312 274.5 166.8125 275.09375 167.808594 C 275.6875 168.808594 276.308594 170.675781 277.945312 170.980469 C 279.582031 171.289062 282.339844 170.410156 283.199219 169.542969 C 284.058594 168.675781 285 166.082031 283.175781 163.945312 C 281.351562 161.8125 278.785156 161.539062 275.503906 164.820312 Z M 275.503906 164.820312 " fill-opacity="1" fill-rule="nonzero"/></g><g fill="#156d61" fill-opacity="1"><g transform="translate(111.55444, 227.88586)"><g><path d="M 0.648438 0 L 1.730469 0 L 1.730469 -8.007812 L 1.753906 -8.007812 L 6.199219 0 L 7.527344 0 L 11.96875 -8.019531 L 11.996094 -8.019531 L 11.996094 0 L 13.074219 0 L 13.074219 -9.164062 L 11.410156 -9.164062 L 6.875 -0.988281 L 6.863281 -0.988281 L 2.300781 -9.164062 L 0.648438 -9.164062 Z M 0.648438 0 "/></g></g></g><g fill="#156d61" fill-opacity="1"><g transform="translate(125.27824, 227.88586)"><g><path d="M 3.71875 0.261719 C 5.667969 0.261719 7.355469 -0.441406 8.046875 -1.429688 L 8.058594 -1.429688 L 8.070312 -1.167969 C 8.097656 -0.3125 8.695312 0.261719 9.59375 0.261719 C 10.28125 0.261719 10.917969 -0.0390625 11.203125 -0.507812 L 10.65625 -1.144531 C 10.488281 -0.84375 10.136719 -0.648438 9.75 -0.648438 C 9.320312 -0.648438 9.046875 -0.9375 9.046875 -1.378906 L 9.046875 -4.417969 C 9.046875 -5.992188 7.175781 -6.824219 5.09375 -6.824219 C 3.132812 -6.824219 1.167969 -6.082031 0.414062 -5.109375 L 1 -4.445312 C 1.636719 -5.289062 3.378906 -5.914062 5.109375 -5.914062 C 6.8125 -5.914062 8.085938 -5.289062 8.085938 -4.550781 C 8.085938 -4.277344 7.890625 -4.121094 7.550781 -4.09375 L 4.222656 -3.847656 C 1.558594 -3.640625 0.261719 -2.871094 0.261719 -1.652344 C 0.261719 -0.390625 1.507812 0.261719 3.71875 0.261719 Z M 3.808594 -0.585938 C 2.105469 -0.585938 1.246094 -0.976562 1.246094 -1.742188 C 1.246094 -2.46875 2.261719 -2.871094 4.328125 -3.027344 L 8.058594 -3.3125 L 8.058594 -2.988281 C 8.058594 -1.664062 6.199219 -0.585938 3.808594 -0.585938 Z M 3.808594 -0.585938 "/></g></g></g><g fill="#156d61" fill-opacity="1"><g transform="translate(136.480804, 227.88586)"><g><path d="M 0.519531 0 L 1.507812 0 L 1.507812 -2.535156 L 3.082031 -3.46875 L 6.941406 0 L 8.320312 0 L 3.859375 -3.953125 L 8.203125 -6.5625 L 6.460938 -6.5625 L 1.519531 -3.574219 L 1.507812 -3.574219 L 1.507812 -9.554688 L 0.519531 -9.554688 Z M 0.519531 0 "/></g></g></g><g fill="#156d61" fill-opacity="1"><g transform="translate(144.798255, 227.88586)"><g><path d="M 5.328125 0.261719 C 7.226562 0.261719 9.070312 -0.402344 9.980469 -1.324219 L 9.410156 -2.039062 C 8.667969 -1.261719 7.070312 -0.6875 5.433594 -0.6875 C 3.378906 -0.6875 1.703125 -1.585938 1.535156 -2.859375 L 9.476562 -2.859375 C 9.488281 -2.988281 9.5 -3.222656 9.5 -3.339844 C 9.5 -5.367188 7.605469 -6.824219 4.976562 -6.824219 C 2.300781 -6.824219 0.390625 -5.367188 0.390625 -3.351562 C 0.390625 -1.261719 2.484375 0.261719 5.328125 0.261719 Z M 1.507812 -3.742188 C 1.625 -4.964844 3.09375 -5.863281 4.914062 -5.863281 C 6.785156 -5.863281 8.292969 -5.054688 8.433594 -3.742188 Z M 1.507812 -3.742188 "/></g></g></g><g fill="#156d61" fill-opacity="1"><g transform="translate(155.143084, 227.88586)"><g><path d="M 4.199219 0.261719 C 5.980469 0.261719 7.394531 -0.429688 7.992188 -1.597656 L 8.007812 -1.597656 L 8.109375 0 L 9.007812 0 L 9.007812 -6.5625 L 8.019531 -6.5625 L 8.019531 -3.78125 C 8.019531 -1.820312 6.667969 -0.648438 4.378906 -0.648438 C 2.535156 -0.648438 1.457031 -1.574219 1.457031 -3.132812 L 1.457031 -6.5625 L 0.453125 -6.5625 L 0.453125 -3.027344 C 0.453125 -0.960938 1.859375 0.261719 4.199219 0.261719 Z M 4.199219 0.261719 "/></g></g></g><g fill="#156d61" fill-opacity="1"><g transform="translate(164.669168, 227.88586)"><g><path d="M 0.519531 2.730469 L 1.507812 2.730469 L 1.507812 -1.496094 L 1.519531 -1.496094 C 2.117188 -0.429688 3.625 0.261719 5.421875 0.261719 C 8.214844 0.261719 10.097656 -1.15625 10.097656 -3.273438 C 10.097656 -5.40625 8.214844 -6.824219 5.394531 -6.824219 C 3.601562 -6.824219 2.066406 -6.136719 1.496094 -5.054688 L 1.480469 -5.054688 L 1.378906 -6.5625 L 0.519531 -6.5625 Z M 5.289062 -0.636719 C 3.015625 -0.636719 1.480469 -1.703125 1.480469 -3.273438 C 1.480469 -4.859375 3.015625 -5.914062 5.289062 -5.914062 C 7.566406 -5.914062 9.097656 -4.859375 9.097656 -3.273438 C 9.097656 -1.703125 7.566406 -0.636719 5.289062 -0.636719 Z M 5.289062 -0.636719 "/></g></g></g><g fill="#156d61" fill-opacity="1"><g transform="translate(175.156956, 227.88586)"><g/></g></g><g fill="#156d61" fill-opacity="1"><g transform="translate(179.224713, 227.88586)"><g><path d="M 9.28125 -1.574219 C 10.007812 -2.222656 10.566406 -3.027344 10.945312 -3.875 L 10.074219 -4.378906 C 9.734375 -3.523438 9.175781 -2.730469 8.449219 -2.117188 L 4.679688 -4.535156 C 7.238281 -4.976562 8.304688 -5.746094 8.304688 -7.042969 C 8.292969 -8.566406 6.695312 -9.371094 4.898438 -9.371094 C 2.792969 -9.371094 1.390625 -8.304688 1.390625 -6.8125 C 1.390625 -5.980469 1.820312 -5.40625 2.46875 -4.925781 C 1.078125 -4.355469 0.390625 -3.625 0.390625 -2.484375 C 0.390625 -0.765625 2.078125 0.339844 4.355469 0.339844 C 5.902344 0.339844 7.355469 -0.167969 8.539062 -1 L 10.113281 0.0117188 L 11.722656 0.0117188 Z M 2.429688 -6.757812 C 2.429688 -7.734375 3.40625 -8.410156 4.953125 -8.410156 C 6.160156 -8.410156 7.316406 -7.953125 7.332031 -6.964844 C 7.34375 -6.03125 6.238281 -5.496094 3.691406 -5.171875 C 2.808594 -5.757812 2.429688 -6.226562 2.429688 -6.757812 Z M 4.40625 -0.636719 C 2.714844 -0.636719 1.457031 -1.339844 1.457031 -2.535156 C 1.457031 -3.445312 2.066406 -4.003906 3.273438 -4.378906 L 7.667969 -1.558594 C 6.746094 -0.988281 5.628906 -0.636719 4.40625 -0.636719 Z M 4.40625 -0.636719 "/></g></g></g><g fill="#156d61" fill-opacity="1"><g transform="translate(190.947124, 227.88586)"><g/></g></g><g fill="#156d61" fill-opacity="1"><g transform="translate(195.01488, 227.88586)"><g><path d="M 5.847656 0.324219 C 8.460938 0.324219 10.253906 -0.804688 10.253906 -2.507812 C 10.253906 -3.898438 9.148438 -4.667969 6.589844 -5.054688 L 4.238281 -5.421875 C 2.691406 -5.640625 2.039062 -6.070312 2.039062 -6.824219 C 2.039062 -7.8125 3.261719 -8.527344 4.964844 -8.527344 C 6.65625 -8.527344 8.085938 -7.773438 8.65625 -6.734375 L 9.476562 -7.371094 C 8.800781 -8.617188 7.042969 -9.488281 4.964844 -9.488281 C 2.636719 -9.488281 0.949219 -8.433594 0.949219 -6.757812 C 0.949219 -5.421875 1.871094 -4.742188 4.027344 -4.417969 L 6.433594 -4.027344 C 8.355469 -3.742188 9.175781 -3.222656 9.175781 -2.417969 C 9.175781 -1.402344 7.863281 -0.636719 5.902344 -0.636719 C 3.613281 -0.636719 1.636719 -1.691406 1.15625 -3.199219 L 0.261719 -2.597656 C 0.960938 -0.882812 3.144531 0.324219 5.847656 0.324219 Z M 5.847656 0.324219 "/></g></g></g><g fill="#156d61" fill-opacity="1"><g transform="translate(205.528658, 227.88586)"><g><path d="M 0.519531 0 L 1.507812 0 L 1.507812 -2.535156 L 3.082031 -3.46875 L 6.941406 0 L 8.320312 0 L 3.859375 -3.953125 L 8.203125 -6.5625 L 6.460938 -6.5625 L 1.519531 -3.574219 L 1.507812 -3.574219 L 1.507812 -9.554688 L 0.519531 -9.554688 Z M 0.519531 0 "/></g></g></g><g fill="#156d61" fill-opacity="1"><g transform="translate(213.846109, 227.88586)"><g><path d="M 1.167969 -7.835938 C 1.613281 -7.835938 1.910156 -8.125 1.910156 -8.566406 C 1.910156 -8.996094 1.613281 -9.28125 1.167969 -9.28125 C 0.726562 -9.28125 0.441406 -8.996094 0.441406 -8.566406 C 0.441406 -8.125 0.726562 -7.835938 1.167969 -7.835938 Z M 0.675781 0 L 1.664062 0 L 1.664062 -6.5625 L 0.675781 -6.5625 Z M 0.675781 0 "/></g></g></g><g fill="#156d61" fill-opacity="1"><g transform="translate(216.198385, 227.88586)"><g><path d="M 5.328125 -6.824219 C 3.546875 -6.824219 2.132812 -6.136719 1.535156 -4.964844 L 1.519531 -4.964844 L 1.417969 -6.5625 L 0.519531 -6.5625 L 0.519531 0 L 1.507812 0 L 1.507812 -2.78125 C 1.507812 -4.742188 2.859375 -5.914062 5.148438 -5.914062 C 6.992188 -5.914062 8.070312 -4.992188 8.070312 -3.429688 L 8.070312 0 L 9.070312 0 L 9.070312 -3.535156 C 9.070312 -5.601562 7.667969 -6.824219 5.328125 -6.824219 Z M 5.328125 -6.824219 "/></g></g></g><g fill="#156d61" fill-opacity="1"><g transform="translate(225.724469, 227.88586)"><g><path d="M 6.679688 0.324219 C 9.476562 0.324219 11.683594 -1.015625 12.375 -3.132812 L 11.359375 -3.457031 C 10.8125 -1.730469 8.996094 -0.625 6.679688 -0.625 C 3.585938 -0.625 1.613281 -2.171875 1.597656 -4.574219 C 1.597656 -6.992188 3.417969 -8.527344 6.277344 -8.527344 C 8.34375 -8.527344 9.96875 -7.539062 10.464844 -5.980469 L 11.4375 -6.382812 C 10.734375 -8.28125 8.722656 -9.488281 6.265625 -9.488281 C 2.742188 -9.488281 0.519531 -7.578125 0.519531 -4.574219 C 0.519531 -1.585938 2.910156 0.324219 6.679688 0.324219 Z M 6.679688 0.324219 "/></g></g></g><g fill="#156d61" fill-opacity="1"><g transform="translate(238.512554, 227.88586)"><g><path d="M 3.71875 0.261719 C 5.667969 0.261719 7.355469 -0.441406 8.046875 -1.429688 L 8.058594 -1.429688 L 8.070312 -1.167969 C 8.097656 -0.3125 8.695312 0.261719 9.59375 0.261719 C 10.28125 0.261719 10.917969 -0.0390625 11.203125 -0.507812 L 10.65625 -1.144531 C 10.488281 -0.84375 10.136719 -0.648438 9.75 -0.648438 C 9.320312 -0.648438 9.046875 -0.9375 9.046875 -1.378906 L 9.046875 -4.417969 C 9.046875 -5.992188 7.175781 -6.824219 5.09375 -6.824219 C 3.132812 -6.824219 1.167969 -6.082031 0.414062 -5.109375 L 1 -4.445312 C 1.636719 -5.289062 3.378906 -5.914062 5.109375 -5.914062 C 6.8125 -5.914062 8.085938 -5.289062 8.085938 -4.550781 C 8.085938 -4.277344 7.890625 -4.121094 7.550781 -4.09375 L 4.222656 -3.847656 C 1.558594 -3.640625 0.261719 -2.871094 0.261719 -1.652344 C 0.261719 -0.390625 1.507812 0.261719 3.71875 0.261719 Z M 3.808594 -0.585938 C 2.105469 -0.585938 1.246094 -0.976562 1.246094 -1.742188 C 1.246094 -2.46875 2.261719 -2.871094 4.328125 -3.027344 L 8.058594 -3.3125 L 8.058594 -2.988281 C 8.058594 -1.664062 6.199219 -0.585938 3.808594 -0.585938 Z M 3.808594 -0.585938 "/></g></g></g><g fill="#156d61" fill-opacity="1"><g transform="translate(249.715118, 227.88586)"><g><path d="M 4.183594 -6.835938 C 2.976562 -6.835938 2.027344 -6.210938 1.535156 -5.1875 L 1.519531 -5.1875 L 1.417969 -6.5625 L 0.519531 -6.5625 L 0.519531 0 L 1.507812 0 L 1.507812 -2.742188 C 1.507812 -4.691406 2.457031 -5.914062 4.066406 -5.914062 C 5.070312 -5.914062 5.796875 -5.328125 5.902344 -4.261719 L 6.773438 -4.550781 C 6.617188 -6.003906 5.613281 -6.835938 4.183594 -6.835938 Z M 4.183594 -6.835938 "/></g></g></g><g fill="#156d61" fill-opacity="1"><g transform="translate(256.745967, 227.88586)"><g><path d="M 5.328125 0.261719 C 7.226562 0.261719 9.070312 -0.402344 9.980469 -1.324219 L 9.410156 -2.039062 C 8.667969 -1.261719 7.070312 -0.6875 5.433594 -0.6875 C 3.378906 -0.6875 1.703125 -1.585938 1.535156 -2.859375 L 9.476562 -2.859375 C 9.488281 -2.988281 9.5 -3.222656 9.5 -3.339844 C 9.5 -5.367188 7.605469 -6.824219 4.976562 -6.824219 C 2.300781 -6.824219 0.390625 -5.367188 0.390625 -3.351562 C 0.390625 -1.261719 2.484375 0.261719 5.328125 0.261719 Z M 1.507812 -3.742188 C 1.625 -4.964844 3.09375 -5.863281 4.914062 -5.863281 C 6.785156 -5.863281 8.292969 -5.054688 8.433594 -3.742188 Z M 1.507812 -3.742188 "/></g></g></g></svg>