<svg xmlns="http://www.w3.org/2000/svg" xmlns:xlink="http://www.w3.org/1999/xlink" width="500" zoomAndPan="magnify" viewBox="0 0 375 374.999991" height="500" preserveAspectRatio="xMidYMid meet" version="1.0"><defs><g/><clipPath id="c3d93edfec"><path d="M 43 50 L 319 50 L 319 324 L 43 324 Z M 43 50 " clip-rule="nonzero"/></clipPath><clipPath id="2a3e788929"><path d="M 366.414062 254.242188 L 118.011719 371.097656 L 0.222656 120.707031 L 248.625 3.851562 Z M 366.414062 254.242188 " clip-rule="nonzero"/></clipPath><clipPath id="06cf7f9672"><path d="M 366.414062 254.242188 L 118.011719 371.097656 L 0.222656 120.707031 L 248.625 3.851562 Z M 366.414062 254.242188 " clip-rule="nonzero"/></clipPath><clipPath id="2d943923a4"><path d="M 366.414062 254.242188 L 118.011719 371.097656 L 0.222656 120.707031 L 248.625 3.851562 Z M 366.414062 254.242188 " clip-rule="nonzero"/></clipPath><clipPath id="9bc0e0eb5f"><path d="M 75.414062 267.09375 C 80.433594 272.582031 86 277.523438 91.976562 281.917969 C 93.078125 283.097656 94.199219 284.253906 95.34375 285.382812 C 105.660156 295.589844 117.6875 303.9375 130.746094 310.242188 C 143.894531 316.589844 158.074219 320.792969 172.550781 322.703125 C 186.960938 324.609375 201.796875 324.0625 215.996094 320.910156 C 230.261719 317.753906 243.800781 311.933594 255.882812 303.722656 C 267.859375 295.582031 278.273438 285.203125 286.769531 273.488281 C 295.371094 261.628906 302.046875 248.34375 306.515625 234.398438 C 306.996094 232.902344 307.445312 231.398438 307.871094 229.886719 C 313.164062 218.324219 316.527344 205.917969 317.738281 193.25 C 319.042969 179.621094 317.925781 165.761719 314.714844 152.453125 C 311.484375 139.066406 306.195312 126.179688 299.15625 114.339844 C 292.136719 102.539062 283.441406 91.738281 273.261719 82.515625 C 263.082031 73.292969 251.519531 65.652344 238.910156 60.179688 C 226.199219 54.664062 212.496094 51.5 198.679688 50.617188 C 184.765625 49.730469 170.710938 51.105469 157.191406 54.492188 C 156.960938 54.546875 156.726562 54.617188 156.492188 54.675781 C 148.039062 55.9375 139.707031 57.957031 131.601562 60.707031 C 118.003906 65.320312 105.09375 72.039062 93.585938 80.636719 C 82.1875 89.148438 72.171875 99.582031 64.371094 111.5 C 56.730469 123.171875 51.214844 136.183594 47.867188 149.71875 C 44.503906 163.300781 43.300781 177.351562 44.210938 191.320312 C 45.109375 205.1875 48.167969 218.914062 53.367188 231.804688 C 58.574219 244.722656 66.007812 256.800781 75.414062 267.09375 Z M 72.433594 249.171875 C 66.324219 237.121094 61.953125 224.21875 59.402344 210.953125 C 56.84375 197.636719 56.128906 183.992188 57.394531 170.492188 C 58.65625 157.050781 61.910156 143.800781 67.234375 131.386719 C 72.617188 118.820312 80.1875 107.222656 89.441406 97.171875 C 98.667969 87.140625 109.476562 78.570312 121.269531 71.753906 C 132.617188 65.195312 144.875 60.210938 157.582031 57.011719 C 163.542969 56.15625 169.566406 55.695312 175.570312 55.636719 C 189.679688 55.503906 203.808594 57.554688 217.207031 62.011719 C 230.738281 66.519531 243.390625 73.40625 254.691406 82.085938 C 265.957031 90.738281 275.84375 101.15625 284.066406 112.734375 C 292.328125 124.386719 298.894531 137.261719 303.429688 150.808594 C 307.957031 164.335938 310.421875 178.636719 310.425781 192.910156 C 310.429688 205.652344 308.523438 218.371094 304.90625 230.582031 C 304.628906 231.171875 304.347656 231.757812 304.058594 232.339844 C 298.242188 244.085938 290.421875 254.878906 281.257812 264.242188 C 272.054688 273.648438 261.46875 281.703125 249.929688 288.027344 C 238.492188 294.296875 226.136719 298.90625 213.324219 301.40625 C 207.082031 302.628906 200.746094 303.34375 194.402344 303.515625 C 206.628906 300.824219 218.464844 296.191406 229.113281 289.59375 C 230.808594 288.542969 229.496094 285.683594 227.773438 286.75 C 216.035156 294.023438 203.03125 298.960938 189.453125 301.46875 C 186.070312 302.09375 182.65625 302.570312 179.238281 302.898438 C 178.03125 302.761719 176.828125 302.617188 175.625 302.445312 C 175.003906 302.355469 174.644531 302.773438 174.574219 303.253906 C 165.777344 303.761719 156.929688 303.328125 148.210938 302.003906 C 134.589844 299.929688 121.246094 295.664062 109.023438 289.285156 C 103.6875 286.5 98.554688 283.320312 93.699219 279.765625 C 85.21875 270.644531 78.078125 260.296875 72.433594 249.171875 Z M 283.683594 273.210938 C 275.183594 284.644531 264.789062 294.683594 252.890625 302.539062 C 240.960938 310.417969 227.519531 315.871094 213.5 318.652344 C 199.488281 321.4375 185.054688 321.621094 170.925781 319.597656 C 156.769531 317.570312 142.957031 313.226562 130.152344 306.867188 C 120.894531 302.269531 112.167969 296.546875 104.28125 289.859375 C 105.859375 290.75 107.457031 291.605469 109.074219 292.425781 C 121.644531 298.804688 135.296875 303.039062 149.242188 305.054688 C 160.660156 306.703125 172.335938 306.84375 183.789062 305.371094 C 194.300781 306.097656 204.902344 305.332031 215.222656 303.199219 C 228.246094 300.5 240.816406 295.695312 252.402344 289.183594 C 264.09375 282.609375 274.835938 274.328125 284.113281 264.632812 C 290.109375 258.367188 295.480469 251.527344 300.101562 244.207031 C 295.832031 254.496094 290.335938 264.261719 283.683594 273.210938 Z M 200.070312 53.226562 C 213.679688 54.257812 227.082031 57.542969 239.542969 63.140625 C 251.769531 68.628906 263.042969 76.292969 272.835938 85.4375 C 282.707031 94.652344 291.1875 105.371094 297.933594 117.078125 C 304.664062 128.769531 309.714844 141.4375 312.710938 154.601562 C 315.679688 167.640625 316.617188 181.140625 315.1875 194.453125 C 314.503906 200.761719 313.273438 206.984375 311.53125 213.070312 C 312.636719 205.851562 313.152344 198.550781 313.042969 191.253906 C 312.816406 176.675781 310.140625 162.226562 305.382812 148.449219 C 300.625 134.660156 293.746094 121.617188 285.15625 109.828125 C 276.628906 98.125 266.367188 87.671875 254.757812 79.015625 C 243.132812 70.351562 230.097656 63.492188 216.273438 59.105469 C 204.980469 55.523438 193.175781 53.574219 181.335938 53.199219 C 187.574219 52.757812 193.839844 52.753906 200.070312 53.226562 Z M 55.359375 229.28125 C 50.433594 216.621094 47.613281 203.148438 46.816406 189.59375 C 46.015625 175.949219 47.3125 162.082031 50.757812 148.855469 C 54.203125 135.625 59.734375 122.941406 67.375 111.59375 C 75.21875 99.9375 85.207031 89.816406 96.550781 81.550781 C 107.726562 73.410156 120.210938 67.121094 133.316406 62.746094 C 128.21875 65.019531 123.261719 67.585938 118.460938 70.441406 C 106.5 77.558594 95.59375 86.394531 86.300781 96.773438 C 76.988281 107.175781 69.453125 119.070312 64.105469 131.96875 C 58.847656 144.644531 55.707031 158.191406 54.574219 171.855469 C 53.433594 185.644531 54.316406 199.617188 57.082031 213.171875 C 59.855469 226.746094 64.511719 239.96875 70.96875 252.234375 C 74.214844 258.398438 77.910156 264.335938 82.046875 269.949219 C 80.09375 268.0625 78.203125 266.101562 76.398438 264.066406 C 67.347656 253.871094 60.296875 241.980469 55.359375 229.28125 Z M 55.359375 229.28125 " clip-rule="nonzero"/></clipPath><linearGradient x1="-137.92231" gradientTransform="matrix(-0.49453, 0.232637, -0.232783, -0.49484, 369.463066, 254.56068)" y1="30.487096" x2="654.961405" gradientUnits="userSpaceOnUse" y2="488.260309" id="d1f62ecf95"><stop stop-opacity="1" stop-color="rgb(70.999146%, 38.798523%, 46.299744%)" offset="0"/><stop stop-opacity="1" stop-color="rgb(70.999146%, 38.798523%, 46.299744%)" offset="0.125"/><stop stop-opacity="1" stop-color="rgb(70.999146%, 38.798523%, 46.299744%)" offset="0.1875"/><stop stop-opacity="1" stop-color="rgb(70.999146%, 38.798523%, 46.299744%)" offset="0.21875"/><stop stop-opacity="1" stop-color="rgb(70.999146%, 38.798523%, 46.299744%)" offset="0.226562"/><stop stop-opacity="1" stop-color="rgb(71.437073%, 39.483643%, 46.942139%)" offset="0.230469"/><stop stop-opacity="1" stop-color="rgb(71.876526%, 40.170288%, 47.58606%)" offset="0.234375"/><stop stop-opacity="1" stop-color="rgb(72.720337%, 41.487122%, 48.822021%)" offset="0.238281"/><stop stop-opacity="1" stop-color="rgb(73.564148%, 42.805481%, 50.059509%)" offset="0.242188"/><stop stop-opacity="1" stop-color="rgb(74.407959%, 44.122314%, 51.296997%)" offset="0.246094"/><stop stop-opacity="1" stop-color="rgb(75.25177%, 45.440674%, 52.534485%)" offset="0.25"/><stop stop-opacity="1" stop-color="rgb(76.095581%, 46.759033%, 53.771973%)" offset="0.253906"/><stop stop-opacity="1" stop-color="rgb(76.939392%, 48.077393%, 55.00946%)" offset="0.257812"/><stop stop-opacity="1" stop-color="rgb(77.783203%, 49.394226%, 56.245422%)" offset="0.261719"/><stop stop-opacity="1" stop-color="rgb(78.627014%, 50.712585%, 57.48291%)" offset="0.265625"/><stop stop-opacity="1" stop-color="rgb(79.470825%, 52.029419%, 58.720398%)" offset="0.269531"/><stop stop-opacity="1" stop-color="rgb(80.314636%, 53.347778%, 59.957886%)" offset="0.273438"/><stop stop-opacity="1" stop-color="rgb(81.158447%, 54.666138%, 61.195374%)" offset="0.277344"/><stop stop-opacity="1" stop-color="rgb(82.002258%, 55.984497%, 62.432861%)" offset="0.28125"/><stop stop-opacity="1" stop-color="rgb(82.846069%, 57.301331%, 63.668823%)" offset="0.285156"/><stop stop-opacity="1" stop-color="rgb(83.68988%, 58.61969%, 64.906311%)" offset="0.289062"/><stop stop-opacity="1" stop-color="rgb(84.533691%, 59.938049%, 66.143799%)" offset="0.292969"/><stop stop-opacity="1" stop-color="rgb(85.379028%, 61.256409%, 67.381287%)" offset="0.296875"/><stop stop-opacity="1" stop-color="rgb(86.222839%, 62.573242%, 68.617249%)" offset="0.300781"/><stop stop-opacity="1" stop-color="rgb(87.06665%, 63.891602%, 69.854736%)" offset="0.304688"/><stop stop-opacity="1" stop-color="rgb(87.910461%, 65.208435%, 71.092224%)" offset="0.308594"/><stop stop-opacity="1" stop-color="rgb(88.754272%, 66.526794%, 72.329712%)" offset="0.3125"/><stop stop-opacity="1" stop-color="rgb(89.598083%, 67.845154%, 73.5672%)" offset="0.316406"/><stop stop-opacity="1" stop-color="rgb(90.441895%, 69.163513%, 74.804688%)" offset="0.320312"/><stop stop-opacity="1" stop-color="rgb(91.285706%, 70.480347%, 76.040649%)" offset="0.324219"/><stop stop-opacity="1" stop-color="rgb(92.129517%, 71.798706%, 77.278137%)" offset="0.328125"/><stop stop-opacity="1" stop-color="rgb(92.973328%, 73.117065%, 78.515625%)" offset="0.332031"/><stop stop-opacity="1" stop-color="rgb(93.817139%, 74.435425%, 79.753113%)" offset="0.335938"/><stop stop-opacity="1" stop-color="rgb(94.66095%, 75.752258%, 80.990601%)" offset="0.339844"/><stop stop-opacity="1" stop-color="rgb(95.504761%, 77.070618%, 82.228088%)" offset="0.34375"/><stop stop-opacity="1" stop-color="rgb(95.445251%, 76.997375%, 82.112122%)" offset="0.347656"/><stop stop-opacity="1" stop-color="rgb(95.385742%, 76.925659%, 81.997681%)" offset="0.351562"/><stop stop-opacity="1" stop-color="rgb(94.833374%, 76.095581%, 81.14624%)" offset="0.355469"/><stop stop-opacity="1" stop-color="rgb(94.282532%, 75.267029%, 80.296326%)" offset="0.359375"/><stop stop-opacity="1" stop-color="rgb(93.731689%, 74.436951%, 79.444885%)" offset="0.363281"/><stop stop-opacity="1" stop-color="rgb(93.180847%, 73.608398%, 78.594971%)" offset="0.367188"/><stop stop-opacity="1" stop-color="rgb(92.630005%, 72.77832%, 77.745056%)" offset="0.371094"/><stop stop-opacity="1" stop-color="rgb(92.079163%, 71.949768%, 76.895142%)" offset="0.375"/><stop stop-opacity="1" stop-color="rgb(91.526794%, 71.11969%, 76.043701%)" offset="0.378906"/><stop stop-opacity="1" stop-color="rgb(90.975952%, 70.291138%, 75.193787%)" offset="0.382812"/><stop stop-opacity="1" stop-color="rgb(90.42511%, 69.46106%, 74.342346%)" offset="0.386719"/><stop stop-opacity="1" stop-color="rgb(89.874268%, 68.632507%, 73.492432%)" offset="0.390625"/><stop stop-opacity="1" stop-color="rgb(89.323425%, 67.802429%, 72.640991%)" offset="0.394531"/><stop stop-opacity="1" stop-color="rgb(88.772583%, 66.973877%, 71.791077%)" offset="0.398438"/><stop stop-opacity="1" stop-color="rgb(88.220215%, 66.143799%, 70.939636%)" offset="0.402344"/><stop stop-opacity="1" stop-color="rgb(87.669373%, 65.315247%, 70.089722%)" offset="0.40625"/><stop stop-opacity="1" stop-color="rgb(87.11853%, 64.485168%, 69.239807%)" offset="0.410156"/><stop stop-opacity="1" stop-color="rgb(86.567688%, 63.656616%, 68.389893%)" offset="0.414062"/><stop stop-opacity="1" stop-color="rgb(86.016846%, 62.826538%, 67.538452%)" offset="0.417969"/><stop stop-opacity="1" stop-color="rgb(85.466003%, 61.997986%, 66.688538%)" offset="0.421875"/><stop stop-opacity="1" stop-color="rgb(84.913635%, 61.167908%, 65.837097%)" offset="0.425781"/><stop stop-opacity="1" stop-color="rgb(84.362793%, 60.339355%, 64.987183%)" offset="0.429688"/><stop stop-opacity="1" stop-color="rgb(83.811951%, 59.509277%, 64.135742%)" offset="0.433594"/><stop stop-opacity="1" stop-color="rgb(83.261108%, 58.680725%, 63.285828%)" offset="0.4375"/><stop stop-opacity="1" stop-color="rgb(82.710266%, 57.850647%, 62.435913%)" offset="0.441406"/><stop stop-opacity="1" stop-color="rgb(82.159424%, 57.022095%, 61.585999%)" offset="0.445312"/><stop stop-opacity="1" stop-color="rgb(81.607056%, 56.192017%, 60.734558%)" offset="0.449219"/><stop stop-opacity="1" stop-color="rgb(81.056213%, 55.363464%, 59.884644%)" offset="0.453125"/><stop stop-opacity="1" stop-color="rgb(80.505371%, 54.533386%, 59.033203%)" offset="0.457031"/><stop stop-opacity="1" stop-color="rgb(79.954529%, 53.704834%, 58.183289%)" offset="0.460938"/><stop stop-opacity="1" stop-color="rgb(79.402161%, 52.874756%, 57.331848%)" offset="0.464844"/><stop stop-opacity="1" stop-color="rgb(78.851318%, 52.046204%, 56.481934%)" offset="0.46875"/><stop stop-opacity="1" stop-color="rgb(78.300476%, 51.216125%, 55.630493%)" offset="0.472656"/><stop stop-opacity="1" stop-color="rgb(77.749634%, 50.387573%, 54.780579%)" offset="0.476563"/><stop stop-opacity="1" stop-color="rgb(77.198792%, 49.557495%, 53.930664%)" offset="0.480469"/><stop stop-opacity="1" stop-color="rgb(76.647949%, 48.728943%, 53.08075%)" offset="0.484375"/><stop stop-opacity="1" stop-color="rgb(76.095581%, 47.898865%, 52.229309%)" offset="0.488281"/><stop stop-opacity="1" stop-color="rgb(75.544739%, 47.070312%, 51.379395%)" offset="0.492188"/><stop stop-opacity="1" stop-color="rgb(75.85144%, 47.666931%, 51.931763%)" offset="0.496094"/><stop stop-opacity="1" stop-color="rgb(76.159668%, 48.26355%, 52.485657%)" offset="0.5"/><stop stop-opacity="1" stop-color="rgb(76.713562%, 49.27063%, 53.442383%)" offset="0.503906"/><stop stop-opacity="1" stop-color="rgb(77.267456%, 50.279236%, 54.400635%)" offset="0.507812"/><stop stop-opacity="1" stop-color="rgb(77.82135%, 51.286316%, 55.357361%)" offset="0.511719"/><stop stop-opacity="1" stop-color="rgb(78.37677%, 52.293396%, 56.314087%)" offset="0.515625"/><stop stop-opacity="1" stop-color="rgb(78.930664%, 53.300476%, 57.270813%)" offset="0.519531"/><stop stop-opacity="1" stop-color="rgb(79.484558%, 54.309082%, 58.227539%)" offset="0.523438"/><stop stop-opacity="1" stop-color="rgb(80.038452%, 55.316162%, 59.184265%)" offset="0.527344"/><stop stop-opacity="1" stop-color="rgb(80.592346%, 56.323242%, 60.142517%)" offset="0.53125"/><stop stop-opacity="1" stop-color="rgb(81.14624%, 57.330322%, 61.099243%)" offset="0.535156"/><stop stop-opacity="1" stop-color="rgb(81.700134%, 58.337402%, 62.055969%)" offset="0.539062"/><stop stop-opacity="1" stop-color="rgb(82.254028%, 59.344482%, 63.012695%)" offset="0.542969"/><stop stop-opacity="1" stop-color="rgb(82.809448%, 60.353088%, 63.970947%)" offset="0.546875"/><stop stop-opacity="1" stop-color="rgb(83.363342%, 61.360168%, 64.927673%)" offset="0.550781"/><stop stop-opacity="1" stop-color="rgb(83.917236%, 62.367249%, 65.884399%)" offset="0.554687"/><stop stop-opacity="1" stop-color="rgb(84.47113%, 63.374329%, 66.841125%)" offset="0.558594"/><stop stop-opacity="1" stop-color="rgb(85.025024%, 64.382935%, 67.797852%)" offset="0.5625"/><stop stop-opacity="1" stop-color="rgb(85.578918%, 65.390015%, 68.754578%)" offset="0.566406"/><stop stop-opacity="1" stop-color="rgb(86.132812%, 66.397095%, 69.71283%)" offset="0.570312"/><stop stop-opacity="1" stop-color="rgb(86.686707%, 67.404175%, 70.669556%)" offset="0.574219"/><stop stop-opacity="1" stop-color="rgb(87.240601%, 68.412781%, 71.626282%)" offset="0.578125"/><stop stop-opacity="1" stop-color="rgb(87.794495%, 69.419861%, 72.583008%)" offset="0.582031"/><stop stop-opacity="1" stop-color="rgb(88.349915%, 70.426941%, 73.54126%)" offset="0.585937"/><stop stop-opacity="1" stop-color="rgb(88.903809%, 71.434021%, 74.497986%)" offset="0.589844"/><stop stop-opacity="1" stop-color="rgb(89.457703%, 72.441101%, 75.454712%)" offset="0.59375"/><stop stop-opacity="1" stop-color="rgb(90.011597%, 73.448181%, 76.411438%)" offset="0.597656"/><stop stop-opacity="1" stop-color="rgb(90.565491%, 74.456787%, 77.368164%)" offset="0.601562"/><stop stop-opacity="1" stop-color="rgb(91.119385%, 75.463867%, 78.32489%)" offset="0.605469"/><stop stop-opacity="1" stop-color="rgb(91.673279%, 76.470947%, 79.283142%)" offset="0.609375"/><stop stop-opacity="1" stop-color="rgb(92.227173%, 77.478027%, 80.239868%)" offset="0.613281"/><stop stop-opacity="1" stop-color="rgb(92.782593%, 78.486633%, 81.196594%)" offset="0.617188"/><stop stop-opacity="1" stop-color="rgb(93.336487%, 79.493713%, 82.15332%)" offset="0.621094"/><stop stop-opacity="1" stop-color="rgb(93.890381%, 80.500793%, 83.111572%)" offset="0.625"/><stop stop-opacity="1" stop-color="rgb(94.444275%, 81.507874%, 84.068298%)" offset="0.628906"/><stop stop-opacity="1" stop-color="rgb(94.998169%, 82.516479%, 85.025024%)" offset="0.632812"/><stop stop-opacity="1" stop-color="rgb(95.552063%, 83.52356%, 85.98175%)" offset="0.636719"/><stop stop-opacity="1" stop-color="rgb(96.105957%, 84.53064%, 86.938477%)" offset="0.640625"/><stop stop-opacity="1" stop-color="rgb(96.659851%, 85.53772%, 87.895203%)" offset="0.644531"/><stop stop-opacity="1" stop-color="rgb(97.215271%, 86.5448%, 88.853455%)" offset="0.648438"/><stop stop-opacity="1" stop-color="rgb(96.569824%, 85.250854%, 87.600708%)" offset="0.652344"/><stop stop-opacity="1" stop-color="rgb(95.925903%, 83.956909%, 86.349487%)" offset="0.65625"/><stop stop-opacity="1" stop-color="rgb(95.181274%, 82.472229%, 84.913635%)" offset="0.660156"/><stop stop-opacity="1" stop-color="rgb(94.438171%, 80.989075%, 83.479309%)" offset="0.664063"/><stop stop-opacity="1" stop-color="rgb(93.693542%, 79.504395%, 82.043457%)" offset="0.667969"/><stop stop-opacity="1" stop-color="rgb(92.950439%, 78.019714%, 80.609131%)" offset="0.671875"/><stop stop-opacity="1" stop-color="rgb(92.205811%, 76.535034%, 79.174805%)" offset="0.675781"/><stop stop-opacity="1" stop-color="rgb(91.462708%, 75.05188%, 77.740479%)" offset="0.679688"/><stop stop-opacity="1" stop-color="rgb(90.718079%, 73.5672%, 76.304626%)" offset="0.683594"/><stop stop-opacity="1" stop-color="rgb(89.974976%, 72.08252%, 74.8703%)" offset="0.6875"/><stop stop-opacity="1" stop-color="rgb(89.231873%, 70.597839%, 73.435974%)" offset="0.691406"/><stop stop-opacity="1" stop-color="rgb(88.48877%, 69.113159%, 72.001648%)" offset="0.695313"/><stop stop-opacity="1" stop-color="rgb(87.744141%, 67.628479%, 70.565796%)" offset="0.699219"/><stop stop-opacity="1" stop-color="rgb(87.001038%, 66.145325%, 69.13147%)" offset="0.703125"/><stop stop-opacity="1" stop-color="rgb(86.256409%, 64.660645%, 67.697144%)" offset="0.707031"/><stop stop-opacity="1" stop-color="rgb(85.513306%, 63.175964%, 66.262817%)" offset="0.710938"/><stop stop-opacity="1" stop-color="rgb(84.768677%, 61.691284%, 64.826965%)" offset="0.714844"/><stop stop-opacity="1" stop-color="rgb(84.025574%, 60.20813%, 63.392639%)" offset="0.71875"/><stop stop-opacity="1" stop-color="rgb(83.280945%, 58.72345%, 61.956787%)" offset="0.722656"/><stop stop-opacity="1" stop-color="rgb(82.537842%, 57.23877%, 60.522461%)" offset="0.726562"/><stop stop-opacity="1" stop-color="rgb(81.794739%, 55.754089%, 59.088135%)" offset="0.730469"/><stop stop-opacity="1" stop-color="rgb(81.051636%, 54.270935%, 57.653809%)" offset="0.734375"/><stop stop-opacity="1" stop-color="rgb(80.307007%, 52.786255%, 56.217957%)" offset="0.738281"/><stop stop-opacity="1" stop-color="rgb(79.563904%, 51.301575%, 54.78363%)" offset="0.742188"/><stop stop-opacity="1" stop-color="rgb(78.819275%, 49.816895%, 53.349304%)" offset="0.746094"/><stop stop-opacity="1" stop-color="rgb(78.076172%, 48.332214%, 51.914978%)" offset="0.75"/><stop stop-opacity="1" stop-color="rgb(77.331543%, 46.847534%, 50.479126%)" offset="0.753906"/><stop stop-opacity="1" stop-color="rgb(76.58844%, 45.36438%, 49.0448%)" offset="0.757812"/><stop stop-opacity="1" stop-color="rgb(75.843811%, 43.8797%, 47.608948%)" offset="0.761719"/><stop stop-opacity="1" stop-color="rgb(75.100708%, 42.39502%, 46.174622%)" offset="0.765625"/><stop stop-opacity="1" stop-color="rgb(74.356079%, 40.910339%, 44.740295%)" offset="0.769531"/><stop stop-opacity="1" stop-color="rgb(73.612976%, 39.427185%, 43.305969%)" offset="0.773438"/><stop stop-opacity="1" stop-color="rgb(73.455811%, 39.112854%, 43.002319%)" offset="0.777344"/><stop stop-opacity="1" stop-color="rgb(73.298645%, 38.798523%, 42.698669%)" offset="0.78125"/><stop stop-opacity="1" stop-color="rgb(73.298645%, 38.798523%, 42.698669%)" offset="0.8125"/><stop stop-opacity="1" stop-color="rgb(73.298645%, 38.798523%, 42.698669%)" offset="0.875"/><stop stop-opacity="1" stop-color="rgb(73.298645%, 38.798523%, 42.698669%)" offset="1"/></linearGradient></defs><g clip-path="url(#c3d93edfec)"><g clip-path="url(#2a3e788929)"><g clip-path="url(#06cf7f9672)"><g clip-path="url(#2d943923a4)"><g clip-path="url(#9bc0e0eb5f)"><path fill="url(#d1f62ecf95)" d="M 424.921875 274.800781 L 269.078125 -56.480469 L -62.578125 99.539062 L 93.261719 430.820312 Z M 424.921875 274.800781 " fill-rule="nonzero"/></g></g></g></g></g><g fill="#000000" fill-opacity="1"><g transform="translate(248.395053, 202.700555)"><g><path d="M -1.039062 -30.9375 C -1.851562 -41.890625 -2.050781 -52.867188 -0.90625 -63.761719 C -0.382812 -68.421875 0.144531 -73.078125 0.765625 -77.683594 C 0.90625 -78.8125 0.515625 -79.089844 -0.425781 -79.128906 C -1.863281 -79.261719 -2.117188 -78.253906 -2.371094 -77.25 C -3.21875 -73.433594 -3.738281 -69.554688 -4.253906 -65.675781 C -5.859375 -52.863281 -5.523438 -40.058594 -4.40625 -27.25 C -3.6875 -18.519531 -2.207031 -9.855469 -0.875 -1.148438 C -0.71875 -0.335938 -0.53125 0.308594 0.378906 0.511719 C 2.042969 0.890625 2.800781 0.285156 2.632812 -1.378906 C 1.84375 -9 1.832031 -16.609375 2.273438 -24.273438 C 2.816406 -33.207031 4.324219 -42.03125 6.230469 -50.816406 C 9.390625 -65.242188 13.71875 -79.382812 20.492188 -92.597656 C 24.460938 -100.417969 29.097656 -107.808594 35.570312 -113.941406 C 38.0625 -116.367188 40.726562 -118.453125 43.996094 -119.78125 C 47.429688 -121.078125 49.410156 -120.402344 51.3125 -117.296875 C 52.792969 -114.847656 53.433594 -112.082031 53.859375 -109.25 C 55.070312 -100.972656 54.433594 -92.632812 53.398438 -84.332031 C 51.847656 -71.609375 49.238281 -59.050781 47.121094 -46.398438 C 45.566406 -36.941406 44.175781 -27.449219 44.453125 -17.816406 C 44.5 -15.5 44.828125 -13.261719 45.179688 -10.957031 C 45.246094 -10.195312 45.769531 -9.726562 46.566406 -9.644531 C 47.367188 -9.5625 47.964844 -9.65625 48.679688 -10.40625 C 49.570312 -11.363281 49.835938 -12.605469 50.359375 -13.761719 C 52.546875 -18.585938 55.382812 -23.054688 58.773438 -27.214844 C 61.1875 -30.160156 63.675781 -33.128906 66.800781 -35.503906 C 68.484375 -36.683594 68.882812 -36.644531 69.820312 -34.738281 C 70.734375 -32.902344 71.363281 -30.984375 72.0625 -29.089844 C 74.183594 -23.324219 79.429688 -21.023438 85.109375 -23.433594 C 88.164062 -24.699219 91.003906 -26.445312 93.6875 -28.460938 C 99.960938 -33.136719 105.441406 -38.671875 111.054688 -44.015625 C 111.597656 -44.558594 112.046875 -45.15625 112.589844 -45.699219 C 113.0625 -46.222656 112.761719 -46.449219 112.21875 -46.449219 C 111.726562 -46.539062 111.246094 -46.324219 110.855469 -46.054688 C 109.976562 -45.335938 109 -44.667969 108.210938 -43.898438 C 104.535156 -40.199219 100.835938 -36.574219 96.839844 -33.171875 C 92.988281 -29.8125 88.796875 -26.824219 84.007812 -24.828125 C 81.4375 -23.777344 79.824219 -24.246094 78.171875 -26.492188 C 77.863281 -27.023438 77.460938 -27.609375 77.203125 -28.234375 C 76.257812 -30.449219 75.453125 -32.703125 74.507812 -34.917969 C 73.324219 -37.6875 71.425781 -38.617188 68.480469 -38.316406 C 66.007812 -37.992188 64.113281 -36.75 62.414062 -35.097656 C 57.730469 -30.566406 53.511719 -25.78125 49.96875 -20.257812 C 49.765625 -19.886719 49.652344 -19.464844 49.027344 -19.207031 C 49.113281 -23.507812 49.332031 -27.609375 49.839844 -31.796875 C 51.066406 -43.492188 53.277344 -55.003906 55.394531 -66.566406 C 57.175781 -76.324219 58.792969 -86.113281 59.117188 -96.074219 C 59.347656 -102.046875 58.957031 -107.996094 57.308594 -113.738281 C 55.402344 -120.648438 49.808594 -123.625 42.957031 -121.503906 C 41.738281 -121.152344 40.488281 -120.636719 39.421875 -120.019531 C 35.957031 -118.015625 32.984375 -115.375 30.332031 -112.4375 C 23.992188 -105.566406 19.355469 -97.632812 15.550781 -89.234375 C 7.554688 -71.632812 2.941406 -53.058594 0.25 -34.027344 C -0.0351562 -31.769531 -0.316406 -29.511719 -0.613281 -27.019531 C -0.765625 -27.285156 -0.808594 -27.429688 -0.828125 -27.5 C -0.921875 -28.640625 -1.015625 -29.777344 -1.039062 -30.9375 Z M -1.039062 -30.9375 "/></g></g></g><g fill="#000000" fill-opacity="1"><g transform="translate(0.0000045, 198.472634)"><g><path d="M 29.386719 21.511719 C 37.992188 18.914062 46.191406 15.34375 54.308594 11.851562 C 55.285156 11.445312 55.933594 11.363281 56.824219 11.851562 C 66.730469 17.210938 77.203125 19.808594 88.484375 18.265625 C 94.980469 17.371094 101.148438 15.585938 106.425781 11.363281 C 108.699219 9.578125 110.402344 7.46875 111.378906 4.707031 C 112.433594 1.542969 111.539062 -1.136719 108.863281 -3.085938 C 105.859375 -5.277344 102.367188 -5.765625 98.796875 -5.601562 C 92.542969 -5.359375 86.617188 -3.976562 80.691406 -2.109375 C 72.085938 0.488281 63.644531 3.816406 55.527344 7.632812 C 54.878906 7.957031 54.390625 8.199219 53.660156 7.710938 C 49.84375 5.195312 46.273438 2.355469 43.429688 -1.378906 C 38.558594 -7.710938 36.367188 -15.019531 35.636719 -22.894531 C 34.90625 -30.441406 36.207031 -37.503906 40.589844 -43.675781 C 47.488281 -53.578125 56.582031 -59.097656 69.082031 -57.230469 C 73.546875 -56.582031 77.445312 -54.550781 79.636719 -50.414062 C 81.421875 -46.921875 83.777344 -43.835938 85.808594 -40.507812 C 86.050781 -40.023438 86.457031 -39.617188 86.941406 -39.371094 C 87.675781 -38.804688 88.566406 -38.480469 89.296875 -39.046875 C 89.945312 -39.617188 89.214844 -40.347656 88.972656 -40.914062 C 86.863281 -45.460938 84.75 -50.007812 82.964844 -54.714844 C 80.691406 -60.804688 79.070312 -67.054688 79.878906 -73.628906 C 80.691406 -79.878906 82.882812 -85.644531 88.242188 -89.460938 C 94.898438 -94.25 99.769531 -93.355469 104.316406 -87.835938 C 104.398438 -87.753906 104.398438 -87.753906 104.476562 -87.675781 C 109.105469 -81.910156 111.867188 -75.414062 112.839844 -68.191406 C 112.921875 -67.136719 113.164062 -66.160156 113.570312 -65.269531 C 113.894531 -64.539062 114.542969 -64.292969 115.355469 -64.292969 C 116.167969 -64.292969 116.167969 -64.945312 116.332031 -65.511719 C 116.492188 -66 116.492188 -66.484375 116.574219 -66.972656 C 116.65625 -76.550781 109.347656 -89.703125 102.449219 -92.949219 C 97.171875 -95.386719 91.976562 -95.386719 86.863281 -92.625 C 79.71875 -88.808594 76.632812 -82.234375 75.335938 -74.683594 C 74.359375 -68.839844 75.496094 -63.15625 77.121094 -57.554688 C 77.203125 -57.070312 77.527344 -56.746094 77.28125 -56.257812 C 77.203125 -56.257812 77.039062 -56.257812 77.039062 -56.339844 C 76.796875 -56.417969 76.550781 -56.582031 76.308594 -56.746094 C 70.625 -60.234375 64.457031 -61.289062 57.960938 -60.074219 C 45.867188 -57.800781 38.074219 -50.085938 33.609375 -39.046875 C 28.167969 -25.734375 32.632812 -8.035156 43.429688 2.433594 C 45.949219 4.871094 48.789062 7.0625 52.035156 9.171875 C 43.1875 13.070312 34.664062 17.046875 25.492188 19.5625 C 15.828125 22.242188 6.898438 22.488281 5.765625 12.421875 C 5.765625 10.390625 4.789062 9.902344 3.976562 9.902344 C 3.328125 9.824219 3.085938 10.390625 3.164062 11.039062 C 5.4375 23.703125 18.023438 24.921875 29.386719 21.511719 Z M 72.492188 4.300781 C 80.855469 1.054688 89.296875 -1.785156 98.308594 -2.597656 C 100.339844 -2.761719 102.367188 -2.839844 104.398438 -2.679688 C 107.238281 -2.355469 107.886719 -1.460938 107.480469 1.300781 C 107.074219 4.058594 105.695312 6.332031 103.503906 8.117188 C 99.851562 11.203125 95.46875 13.070312 90.839844 14.207031 C 79.800781 16.886719 69.164062 15.75 59.015625 10.632812 C 58.855469 10.554688 58.691406 10.390625 58.207031 10.148438 C 63.15625 8.117188 67.785156 6.089844 72.492188 4.300781 Z M 72.492188 4.300781 "/></g></g></g><g fill="#000000" fill-opacity="1"><g transform="translate(119.320946, 198.472634)"><g><path d="M 69.894531 -14.125 C 69.734375 -14.042969 69.570312 -13.960938 69.410156 -13.800781 C 67.542969 -12.664062 65.675781 -11.527344 63.808594 -10.390625 C 59.828125 -7.957031 55.933594 -5.4375 51.628906 -3.570312 C 48.300781 -2.109375 44.890625 -1.21875 41.238281 -1.300781 C 38.886719 -1.300781 38.558594 -1.785156 39.046875 -3.976562 C 39.128906 -4.300781 39.210938 -4.628906 39.289062 -4.953125 C 39.535156 -5.925781 39.859375 -6.898438 39.941406 -7.875 C 40.023438 -9.496094 39.371094 -10.796875 38.074219 -11.769531 C 36.773438 -12.664062 35.71875 -12.015625 34.582031 -11.445312 C 32.472656 -10.308594 30.523438 -8.847656 28.492188 -7.550781 C 28.167969 -7.386719 27.925781 -6.898438 27.277344 -7.226562 C 27.519531 -8.605469 28.492188 -9.578125 29.0625 -10.878906 C 30.6875 -14.367188 32.554688 -17.777344 34.824219 -21.027344 C 37.34375 -24.515625 39.695312 -28.007812 42.132812 -31.578125 C 43.351562 -33.445312 44.40625 -35.394531 44.972656 -37.667969 C 45.867188 -41.5625 42.292969 -45.378906 38.316406 -44.488281 C 34.824219 -43.675781 31.660156 -42.214844 28.738281 -40.183594 C 22.972656 -36.042969 18.101562 -30.847656 13.394531 -25.570312 C 10.148438 -21.835938 7.386719 -17.777344 4.628906 -13.71875 C 4.222656 -13.152344 3.898438 -12.5 3.085938 -12.097656 C 3.085938 -13.152344 3.492188 -13.960938 3.816406 -14.773438 C 4.464844 -16.15625 5.03125 -17.535156 5.765625 -18.832031 C 6.25 -19.644531 5.765625 -20.78125 4.789062 -21.351562 C 3.976562 -21.835938 3.410156 -21.511719 2.839844 -20.78125 C 2.191406 -19.890625 1.542969 -18.996094 1.054688 -17.941406 C -0.730469 -13.960938 -1.21875 -9.742188 -1.703125 -5.519531 C -1.867188 -4.300781 -1.300781 -3.410156 -0.488281 -2.679688 C 0.40625 -1.949219 0.894531 -2.03125 1.542969 -3.003906 C 2.679688 -4.707031 3.734375 -6.496094 4.789062 -8.28125 C 10.472656 -17.535156 16.964844 -26.140625 25.492188 -32.957031 C 29.226562 -35.882812 33.121094 -38.558594 37.585938 -40.183594 C 38.804688 -40.589844 39.941406 -41.078125 41.484375 -40.832031 C 41.402344 -39.695312 40.996094 -38.886719 40.589844 -37.992188 C 40.023438 -36.855469 39.289062 -35.71875 38.640625 -34.582031 C 36.042969 -29.957031 32.632812 -25.894531 29.710938 -21.511719 C 26.625 -16.886719 24.109375 -12.015625 22.324219 -6.738281 C 22 -5.84375 21.675781 -4.871094 21.757812 -3.816406 C 21.835938 -2.515625 22.648438 -1.785156 23.703125 -1.21875 C 24.679688 -0.730469 25.164062 -1.625 25.816406 -2.109375 C 28.25 -4.140625 30.847656 -6.089844 33.691406 -7.550781 C 34.339844 -7.957031 35.070312 -8.441406 35.960938 -8.28125 C 35.882812 -6.980469 35.800781 -5.925781 35.71875 -4.789062 C 35.394531 -1.378906 38.886719 2.03125 42.621094 1.21875 C 47.003906 0.324219 51.0625 -1.300781 54.878906 -3.492188 C 58.367188 -5.4375 61.777344 -7.632812 65.1875 -9.660156 C 66.972656 -10.796875 68.679688 -11.933594 70.464844 -12.988281 C 70.789062 -13.230469 71.03125 -13.476562 70.707031 -13.960938 C 70.546875 -14.207031 70.21875 -14.289062 69.894531 -14.125 Z M 69.894531 -14.125 "/></g></g></g><g fill="#000000" fill-opacity="1"><g transform="translate(189.290089, 198.472634)"><g><path d="M 5.683594 -2.597656 C 5.84375 -0.894531 6.089844 0.8125 6.898438 2.355469 C 9.660156 7.550781 15.179688 8.6875 19.808594 6.738281 C 29.144531 2.761719 46.679688 -12.582031 56.746094 -13.800781 C 56.664062 -14.125 56.664062 -14.289062 56.582031 -14.367188 C 53.820312 -17.453125 28.898438 -0.324219 20.699219 3.652344 C 18.589844 4.707031 16.480469 5.601562 14.042969 5.601562 C 12.828125 5.519531 12.015625 5.03125 11.527344 3.898438 C 11.039062 2.761719 10.796875 1.542969 10.796875 0.242188 C 10.714844 -2.679688 11.285156 -5.4375 12.421875 -8.199219 C 13.3125 -10.472656 14.695312 -12.5 15.910156 -14.613281 C 16.804688 -16.316406 16.640625 -16.886719 14.9375 -17.695312 C 14.449219 -17.941406 13.960938 -18.265625 13.476562 -18.101562 C 12.582031 -17.777344 12.097656 -18.265625 11.445312 -18.671875 C 9.011719 -20.050781 6.574219 -20.375 4.140625 -18.832031 C -1.703125 -15.179688 -4.382812 -9.660156 -4.222656 -2.921875 C -4.222656 -0.648438 -1.625 0.648438 0.488281 -0.324219 C 1.300781 -0.730469 2.03125 -1.300781 2.597656 -1.949219 C 3.492188 -2.761719 4.382812 -3.652344 5.359375 -4.628906 C 5.683594 -3.816406 5.601562 -3.164062 5.683594 -2.597656 Z M 1.136719 -3.570312 C 0.566406 -3.085938 -0.0820312 -2.679688 -0.972656 -2.03125 C -0.972656 -3.816406 -0.648438 -5.113281 -0.164062 -6.25 C 1.300781 -9.984375 3.410156 -13.152344 6.496094 -15.75 C 7.0625 -16.234375 7.792969 -16.5625 8.441406 -16.964844 C 8.847656 -17.210938 9.417969 -17.292969 9.742188 -16.722656 C 10.066406 -16.234375 10.390625 -15.828125 9.984375 -15.179688 C 7.386719 -11.039062 4.871094 -6.820312 1.136719 -3.570312 Z M 1.136719 -3.570312 "/></g></g></g><path fill="#156d61" d="M 312.167969 147.589844 C 312.167969 147.589844 310.699219 150.5 311.570312 151.964844 C 312.441406 153.425781 313.347656 156.15625 315.746094 156.605469 C 318.140625 157.054688 322.179688 155.769531 323.4375 154.5 C 324.695312 153.230469 326.070312 149.433594 323.398438 146.308594 C 320.730469 143.183594 316.972656 142.78125 312.167969 147.589844 Z M 312.167969 147.589844 " fill-opacity="1" fill-rule="nonzero"/><g fill="#156d61" fill-opacity="1"><g transform="translate(72.13415, 239.919644)"><g><path d="M 0.953125 0 L 2.53125 0 L 2.53125 -11.722656 L 2.570312 -11.722656 L 9.078125 0 L 11.019531 0 L 17.527344 -11.742188 L 17.5625 -11.742188 L 17.5625 0 L 19.144531 0 L 19.144531 -13.414062 L 16.707031 -13.414062 L 10.066406 -1.445312 L 10.046875 -1.445312 L 3.367188 -13.414062 L 0.953125 -13.414062 Z M 0.953125 0 "/></g></g></g><g fill="#156d61" fill-opacity="1"><g transform="translate(92.226894, 239.919644)"><g><path d="M 5.441406 0.378906 C 8.296875 0.378906 10.769531 -0.648438 11.777344 -2.09375 L 11.796875 -2.09375 L 11.816406 -1.710938 C 11.855469 -0.457031 12.730469 0.378906 14.042969 0.378906 C 15.050781 0.378906 15.984375 -0.0585938 16.402344 -0.742188 L 15.605469 -1.675781 C 15.355469 -1.238281 14.84375 -0.953125 14.273438 -0.953125 C 13.644531 -0.953125 13.246094 -1.371094 13.246094 -2.015625 L 13.246094 -6.46875 C 13.246094 -8.773438 10.503906 -9.992188 7.460938 -9.992188 C 4.585938 -9.992188 1.710938 -8.90625 0.609375 -7.480469 L 1.464844 -6.507812 C 2.398438 -7.746094 4.949219 -8.660156 7.480469 -8.660156 C 9.972656 -8.660156 11.835938 -7.746094 11.835938 -6.660156 C 11.835938 -6.261719 11.550781 -6.03125 11.054688 -5.996094 L 6.183594 -5.632812 C 2.285156 -5.328125 0.378906 -4.207031 0.378906 -2.417969 C 0.378906 -0.570312 2.207031 0.378906 5.441406 0.378906 Z M 5.574219 -0.855469 C 3.082031 -0.855469 1.828125 -1.425781 1.828125 -2.550781 C 1.828125 -3.617188 3.3125 -4.207031 6.335938 -4.433594 L 11.796875 -4.851562 L 11.796875 -4.375 C 11.796875 -2.4375 9.078125 -0.855469 5.574219 -0.855469 Z M 5.574219 -0.855469 "/></g></g></g><g fill="#156d61" fill-opacity="1"><g transform="translate(108.628345, 239.919644)"><g><path d="M 0.761719 0 L 2.207031 0 L 2.207031 -3.710938 L 4.511719 -5.082031 L 10.160156 0 L 12.179688 0 L 5.652344 -5.785156 L 12.007812 -9.609375 L 9.457031 -9.609375 L 2.226562 -5.234375 L 2.207031 -5.234375 L 2.207031 -13.988281 L 0.761719 -13.988281 Z M 0.761719 0 "/></g></g></g><g fill="#156d61" fill-opacity="1"><g transform="translate(120.80576, 239.919644)"><g><path d="M 7.800781 0.378906 C 10.582031 0.378906 13.28125 -0.589844 14.613281 -1.941406 L 13.777344 -2.988281 C 12.691406 -1.847656 10.351562 -1.007812 7.953125 -1.007812 C 4.949219 -1.007812 2.492188 -2.320312 2.246094 -4.1875 L 13.871094 -4.1875 C 13.890625 -4.375 13.910156 -4.71875 13.910156 -4.890625 C 13.910156 -7.859375 11.132812 -9.992188 7.289062 -9.992188 C 3.367188 -9.992188 0.570312 -7.859375 0.570312 -4.910156 C 0.570312 -1.847656 3.632812 0.378906 7.800781 0.378906 Z M 2.207031 -5.480469 C 2.378906 -7.269531 4.527344 -8.582031 7.191406 -8.582031 C 9.933594 -8.582031 12.140625 -7.402344 12.351562 -5.480469 Z M 2.207031 -5.480469 "/></g></g></g><g fill="#156d61" fill-opacity="1"><g transform="translate(135.951419, 239.919644)"><g><path d="M 6.148438 0.378906 C 8.753906 0.378906 10.828125 -0.628906 11.703125 -2.339844 L 11.722656 -2.339844 L 11.875 0 L 13.1875 0 L 13.1875 -9.609375 L 11.742188 -9.609375 L 11.742188 -5.539062 C 11.742188 -2.664062 9.761719 -0.953125 6.414062 -0.953125 C 3.710938 -0.953125 2.132812 -2.300781 2.132812 -4.585938 L 2.132812 -9.609375 L 0.667969 -9.609375 L 0.667969 -4.433594 C 0.667969 -1.40625 2.722656 0.378906 6.148438 0.378906 Z M 6.148438 0.378906 "/></g></g></g><g fill="#156d61" fill-opacity="1"><g transform="translate(149.89837, 239.919644)"><g><path d="M 0.761719 3.996094 L 2.207031 3.996094 L 2.207031 -2.1875 L 2.226562 -2.1875 C 3.101562 -0.628906 5.308594 0.378906 7.933594 0.378906 C 12.027344 0.378906 14.785156 -1.695312 14.785156 -4.796875 C 14.785156 -7.917969 12.027344 -9.992188 7.898438 -9.992188 C 5.269531 -9.992188 3.027344 -8.980469 2.1875 -7.402344 L 2.167969 -7.402344 L 2.015625 -9.609375 L 0.761719 -9.609375 Z M 7.746094 -0.933594 C 4.414062 -0.933594 2.167969 -2.492188 2.167969 -4.796875 C 2.167969 -7.117188 4.414062 -8.660156 7.746094 -8.660156 C 11.074219 -8.660156 13.320312 -7.117188 13.320312 -4.796875 C 13.320312 -2.492188 11.074219 -0.933594 7.746094 -0.933594 Z M 7.746094 -0.933594 "/></g></g></g><g fill="#156d61" fill-opacity="1"><g transform="translate(165.253334, 239.919644)"><g/></g></g><g fill="#156d61" fill-opacity="1"><g transform="translate(171.208855, 239.919644)"><g><path d="M 13.585938 -2.300781 C 14.652344 -3.253906 15.472656 -4.433594 16.023438 -5.671875 L 14.746094 -6.414062 C 14.253906 -5.15625 13.433594 -3.996094 12.367188 -3.101562 L 6.851562 -6.640625 C 10.597656 -7.289062 12.160156 -8.410156 12.160156 -10.3125 C 12.140625 -12.539062 9.800781 -13.71875 7.175781 -13.71875 C 4.089844 -13.71875 2.035156 -12.160156 2.035156 -9.972656 C 2.035156 -8.753906 2.664062 -7.917969 3.617188 -7.210938 C 1.578125 -6.375 0.570312 -5.308594 0.570312 -3.632812 C 0.570312 -1.121094 3.042969 0.496094 6.375 0.496094 C 8.640625 0.496094 10.769531 -0.246094 12.503906 -1.464844 L 14.804688 0.0195312 L 17.164062 0.0195312 Z M 3.558594 -9.894531 C 3.558594 -11.324219 4.984375 -12.3125 7.25 -12.3125 C 9.019531 -12.3125 10.714844 -11.644531 10.734375 -10.199219 C 10.75 -8.828125 9.132812 -8.050781 5.40625 -7.574219 C 4.109375 -8.429688 3.558594 -9.113281 3.558594 -9.894531 Z M 6.449219 -0.933594 C 3.976562 -0.933594 2.132812 -1.960938 2.132812 -3.710938 C 2.132812 -5.042969 3.027344 -5.859375 4.796875 -6.414062 L 11.226562 -2.285156 C 9.875 -1.445312 8.238281 -0.933594 6.449219 -0.933594 Z M 6.449219 -0.933594 "/></g></g></g><g fill="#156d61" fill-opacity="1"><g transform="translate(188.371406, 239.919644)"><g/></g></g><g fill="#156d61" fill-opacity="1"><g transform="translate(194.326927, 239.919644)"><g><path d="M 8.5625 0.476562 C 12.386719 0.476562 15.015625 -1.179688 15.015625 -3.671875 C 15.015625 -5.707031 13.398438 -6.832031 9.648438 -7.402344 L 6.203125 -7.933594 C 3.9375 -8.257812 2.988281 -8.886719 2.988281 -9.992188 C 2.988281 -11.4375 4.777344 -12.484375 7.269531 -12.484375 C 9.742188 -12.484375 11.835938 -11.378906 12.671875 -9.855469 L 13.871094 -10.789062 C 12.882812 -12.617188 10.3125 -13.890625 7.269531 -13.890625 C 3.863281 -13.890625 1.390625 -12.351562 1.390625 -9.894531 C 1.390625 -7.933594 2.738281 -6.945312 5.898438 -6.46875 L 9.417969 -5.898438 C 12.234375 -5.480469 13.433594 -4.71875 13.433594 -3.539062 C 13.433594 -2.054688 11.511719 -0.933594 8.640625 -0.933594 C 5.289062 -0.933594 2.398438 -2.472656 1.695312 -4.679688 L 0.378906 -3.804688 C 1.40625 -1.292969 4.605469 0.476562 8.5625 0.476562 Z M 8.5625 0.476562 "/></g></g></g><g fill="#156d61" fill-opacity="1"><g transform="translate(209.719941, 239.919644)"><g><path d="M 0.761719 0 L 2.207031 0 L 2.207031 -3.710938 L 4.511719 -5.082031 L 10.160156 0 L 12.179688 0 L 5.652344 -5.785156 L 12.007812 -9.609375 L 9.457031 -9.609375 L 2.226562 -5.234375 L 2.207031 -5.234375 L 2.207031 -13.988281 L 0.761719 -13.988281 Z M 0.761719 0 "/></g></g></g><g fill="#156d61" fill-opacity="1"><g transform="translate(221.897356, 239.919644)"><g><path d="M 1.710938 -11.476562 C 2.359375 -11.476562 2.796875 -11.894531 2.796875 -12.539062 C 2.796875 -13.167969 2.359375 -13.585938 1.710938 -13.585938 C 1.066406 -13.585938 0.648438 -13.167969 0.648438 -12.539062 C 0.648438 -11.894531 1.066406 -11.476562 1.710938 -11.476562 Z M 0.988281 0 L 2.4375 0 L 2.4375 -9.609375 L 0.988281 -9.609375 Z M 0.988281 0 "/></g></g></g><g fill="#156d61" fill-opacity="1"><g transform="translate(225.341277, 239.919644)"><g><path d="M 7.800781 -9.992188 C 5.195312 -9.992188 3.121094 -8.980469 2.246094 -7.269531 L 2.226562 -7.269531 L 2.074219 -9.609375 L 0.761719 -9.609375 L 0.761719 0 L 2.207031 0 L 2.207031 -4.074219 C 2.207031 -6.945312 4.1875 -8.660156 7.535156 -8.660156 C 10.238281 -8.660156 11.816406 -7.308594 11.816406 -5.023438 L 11.816406 0 L 13.28125 0 L 13.28125 -5.175781 C 13.28125 -8.203125 11.226562 -9.992188 7.800781 -9.992188 Z M 7.800781 -9.992188 "/></g></g></g><g fill="#156d61" fill-opacity="1"><g transform="translate(239.288228, 239.919644)"><g><path d="M 9.78125 0.476562 C 13.871094 0.476562 17.105469 -1.484375 18.117188 -4.585938 L 16.632812 -5.0625 C 15.832031 -2.53125 13.167969 -0.914062 9.78125 -0.914062 C 5.253906 -0.914062 2.359375 -3.179688 2.339844 -6.699219 C 2.339844 -10.238281 5.003906 -12.484375 9.191406 -12.484375 C 12.21875 -12.484375 14.59375 -11.035156 15.320312 -8.753906 L 16.746094 -9.34375 C 15.71875 -12.121094 12.769531 -13.890625 9.171875 -13.890625 C 4.015625 -13.890625 0.761719 -11.09375 0.761719 -6.699219 C 0.761719 -2.320312 4.261719 0.476562 9.78125 0.476562 Z M 9.78125 0.476562 "/></g></g></g><g fill="#156d61" fill-opacity="1"><g transform="translate(258.01101, 239.919644)"><g><path d="M 5.441406 0.378906 C 8.296875 0.378906 10.769531 -0.648438 11.777344 -2.09375 L 11.796875 -2.09375 L 11.816406 -1.710938 C 11.855469 -0.457031 12.730469 0.378906 14.042969 0.378906 C 15.050781 0.378906 15.984375 -0.0585938 16.402344 -0.742188 L 15.605469 -1.675781 C 15.355469 -1.238281 14.84375 -0.953125 14.273438 -0.953125 C 13.644531 -0.953125 13.246094 -1.371094 13.246094 -2.015625 L 13.246094 -6.46875 C 13.246094 -8.773438 10.503906 -9.992188 7.460938 -9.992188 C 4.585938 -9.992188 1.710938 -8.90625 0.609375 -7.480469 L 1.464844 -6.507812 C 2.398438 -7.746094 4.949219 -8.660156 7.480469 -8.660156 C 9.972656 -8.660156 11.835938 -7.746094 11.835938 -6.660156 C 11.835938 -6.261719 11.550781 -6.03125 11.054688 -5.996094 L 6.183594 -5.632812 C 2.285156 -5.328125 0.378906 -4.207031 0.378906 -2.417969 C 0.378906 -0.570312 2.207031 0.378906 5.441406 0.378906 Z M 5.574219 -0.855469 C 3.082031 -0.855469 1.828125 -1.425781 1.828125 -2.550781 C 1.828125 -3.617188 3.3125 -4.207031 6.335938 -4.433594 L 11.796875 -4.851562 L 11.796875 -4.375 C 11.796875 -2.4375 9.078125 -0.855469 5.574219 -0.855469 Z M 5.574219 -0.855469 "/></g></g></g><g fill="#156d61" fill-opacity="1"><g transform="translate(274.412461, 239.919644)"><g><path d="M 6.128906 -10.007812 C 4.359375 -10.007812 2.96875 -9.097656 2.246094 -7.59375 L 2.226562 -7.59375 L 2.074219 -9.609375 L 0.761719 -9.609375 L 0.761719 0 L 2.207031 0 L 2.207031 -4.015625 C 2.207031 -6.871094 3.597656 -8.660156 5.957031 -8.660156 C 7.421875 -8.660156 8.488281 -7.800781 8.640625 -6.242188 L 9.914062 -6.660156 C 9.6875 -8.792969 8.21875 -10.007812 6.128906 -10.007812 Z M 6.128906 -10.007812 "/></g></g></g><g fill="#156d61" fill-opacity="1"><g transform="translate(284.706188, 239.919644)"><g><path d="M 7.800781 0.378906 C 10.582031 0.378906 13.28125 -0.589844 14.613281 -1.941406 L 13.777344 -2.988281 C 12.691406 -1.847656 10.351562 -1.007812 7.953125 -1.007812 C 4.949219 -1.007812 2.492188 -2.320312 2.246094 -4.1875 L 13.871094 -4.1875 C 13.890625 -4.375 13.910156 -4.71875 13.910156 -4.890625 C 13.910156 -7.859375 11.132812 -9.992188 7.289062 -9.992188 C 3.367188 -9.992188 0.570312 -7.859375 0.570312 -4.910156 C 0.570312 -1.847656 3.632812 0.378906 7.800781 0.378906 Z M 2.207031 -5.480469 C 2.378906 -7.269531 4.527344 -8.582031 7.191406 -8.582031 C 9.933594 -8.582031 12.140625 -7.402344 12.351562 -5.480469 Z M 2.207031 -5.480469 "/></g></g></g></svg>